<svg width="21" height="20" viewBox="0 0 21 20" fill="none" xmlns="http://www.w3.org/2000/svg">
<g id="Radio Button" clip-path="url(#clip0_427_5638)">
<path id="Vector" d="M10.5 1.6665C5.89996 1.6665 2.16663 5.39984 2.16663 9.99984C2.16663 14.5998 5.89996 18.3332 10.5 18.3332C15.1 18.3332 18.8333 14.5998 18.8333 9.99984C18.8333 5.39984 15.1 1.6665 10.5 1.6665ZM10.5 16.6665C6.81663 16.6665 3.83329 13.6832 3.83329 9.99984C3.83329 6.3165 6.81663 3.33317 10.5 3.33317C14.1833 3.33317 17.1666 6.3165 17.1666 9.99984C17.1666 13.6832 14.1833 16.6665 10.5 16.6665Z" fill="black"/>
<path id="Vector_2" d="M10.5 14.1668C12.8012 14.1668 14.6667 12.3013 14.6667 10.0002C14.6667 7.69898 12.8012 5.8335 10.5 5.8335C8.19885 5.8335 6.33337 7.69898 6.33337 10.0002C6.33337 12.3013 8.19885 14.1668 10.5 14.1668Z" fill="#FFB800"/>
</g>
<defs>
<clipPath id="clip0_427_5638">
<rect width="20" height="20" fill="white" transform="translate(0.5)"/>
</clipPath>
</defs>
</svg>
