<svg width="24" height="24" viewBox="0 0 24 24" fill="none" xmlns="http://www.w3.org/2000/svg">
<path fill-rule="evenodd" clip-rule="evenodd" d="M12 2C6.47727 2 2 6.47727 2 12C2 17.5227 6.47727 22 12 22C17.5227 22 22 17.5227 22 12C22 6.47727 17.5227 2 12 2ZM12.9091 15.6364C12.9091 15.8775 12.8133 16.1087 12.6428 16.2792C12.4723 16.4497 12.2411 16.5455 12 16.5455C11.7589 16.5455 11.5277 16.4497 11.3572 16.2792C11.1867 16.1087 11.0909 15.8775 11.0909 15.6364V12.9091H8.36364C8.12253 12.9091 7.8913 12.8133 7.72081 12.6428C7.55032 12.4723 7.45455 12.2411 7.45455 12C7.45455 11.7589 7.55032 11.5277 7.72081 11.3572C7.8913 11.1867 8.12253 11.0909 8.36364 11.0909H11.0909V8.36364C11.0909 8.12253 11.1867 7.8913 11.3572 7.72081C11.5277 7.55032 11.7589 7.45455 12 7.45455C12.2411 7.45455 12.4723 7.55032 12.6428 7.72081C12.8133 7.8913 12.9091 8.12253 12.9091 8.36364V11.0909H15.6364C15.8775 11.0909 16.1087 11.1867 16.2792 11.3572C16.4497 11.5277 16.5455 11.7589 16.5455 12C16.5455 12.2411 16.4497 12.4723 16.2792 12.6428C16.1087 12.8133 15.8775 12.9091 15.6364 12.9091H12.9091V15.6364Z" fill="#FFC700"/>
</svg>
