<svg width="38" height="38" viewBox="0 0 38 38" fill="none" xmlns="http://www.w3.org/2000/svg">
<g id="Note Add">
<path id="Vector" d="M14.25 13.0625C14.25 18.965 19.035 23.75 24.9375 23.75C30.84 23.75 35.625 18.965 35.625 13.0625C35.625 7.15996 30.84 2.375 24.9375 2.375C19.035 2.375 14.25 7.15996 14.25 13.0625ZM23.75 8.3125C23.75 7.65667 24.2817 7.125 24.9375 7.125C25.5933 7.125 26.125 7.65667 26.125 8.3125V11.875H29.6875C30.3433 11.875 30.875 12.4067 30.875 13.0625C30.875 13.7183 30.3433 14.25 29.6875 14.25H26.125V17.8125C26.125 18.4683 25.5933 19 24.9375 19C24.2817 19 23.75 18.4683 23.75 17.8125V14.25H20.1875C19.5317 14.25 19 13.7183 19 13.0625C19 12.4067 19.5317 11.875 20.1875 11.875H23.75V8.3125Z" fill="#FFB800"/>
<path id="Vector_2" d="M24.9375 26.125C17.7233 26.125 11.875 20.2767 11.875 13.0625C11.875 10.9245 12.3887 8.90642 13.2993 7.125H8.3125C5.03334 7.125 2.375 9.78331 2.375 13.0625V21.375H9.5C13.4351 21.375 16.625 24.5649 16.625 28.5V35.625H24.9375C28.2167 35.625 30.875 32.9667 30.875 29.6875V24.7007C29.0936 25.6113 27.0755 26.125 24.9375 26.125Z" fill="#FFB800"/>
<path id="Vector_3" d="M14.25 35.5884C13.4933 35.4794 12.7868 35.1286 12.2398 34.5817L3.41834 25.7602C2.87137 25.2132 2.52059 24.5067 2.41157 23.75H9.5C12.1234 23.75 14.25 25.8766 14.25 28.5V35.5884Z" fill="black"/>
</g>
</svg>