<svg width="35" height="34" viewBox="0 0 35 34" fill="none" xmlns="http://www.w3.org/2000/svg">
<g clip-path="url(#clip0_1025_6395)">
<path fill-rule="evenodd" clip-rule="evenodd" d="M28.8039 5.64985C25.9615 2.80706 22.041 1.05151 17.7035 1.05151C13.366 1.05151 9.44568 2.80706 6.60322 5.64978C3.76075 8.49237 2.00488 12.4125 2.00488 16.7501C2.00488 21.0874 3.76075 25.0079 6.60322 27.8503C9.44568 30.6931 13.366 32.4485 17.7035 32.4485C22.041 32.4485 25.9615 30.6931 28.8039 27.8503C31.6464 25.0079 33.4024 21.0874 33.4024 16.7501C33.4024 12.4126 31.6464 8.49244 28.8039 5.64985ZM27.9436 26.9897C25.3185 29.6065 21.702 31.2232 17.7035 31.2232C13.7052 31.2232 10.0889 29.6065 7.47245 26.9897C4.85585 24.3649 3.23045 20.7487 3.23045 16.7501C3.23045 12.7517 4.85585 9.13548 7.47245 6.51908C10.0889 3.90268 13.7052 2.27695 17.7035 2.27695C21.702 2.27695 25.3185 3.90268 27.9436 6.51908C30.56 9.13548 32.1767 12.7517 32.1767 16.7501C32.1767 20.7487 30.56 24.3649 27.9436 26.9897Z" fill="#FFB800"/>
<path d="M18.2763 8.60125C19.4852 7.00777 21.1659 7 21.1659 7C21.1659 7 21.4159 8.49814 20.2149 9.94133C18.9325 11.4823 17.4749 11.2302 17.4749 11.2302C17.4749 11.2302 17.2012 10.0182 18.2763 8.60125ZM17.6287 12.2796C18.2506 12.2796 19.4049 11.4247 20.9074 11.4247C23.4936 11.4247 24.511 13.265 24.511 13.265C24.511 13.265 22.5211 14.2824 22.5211 16.7512C22.5211 19.5361 25 20.4959 25 20.4959C25 20.4959 23.2672 25.3734 20.9266 25.3734C19.8516 25.3734 19.0159 24.6489 17.8832 24.6489C16.7289 24.6489 15.5834 25.4004 14.8374 25.4004C12.7001 25.4005 10 20.7737 10 17.0545C10 13.3954 12.2855 11.4759 14.4292 11.4759C15.8228 11.4759 16.9042 12.2796 17.6287 12.2796Z" fill="#FFB800"/>
</g>
<defs>
<clipPath id="clip0_1025_6395">
<rect width="33.5" height="33.5" fill="white" transform="translate(0.956055)"/>
</clipPath>
</defs>
</svg>
