<svg width="40" height="38" viewBox="0 0 40 38" fill="none" xmlns="http://www.w3.org/2000/svg">
<g clip-path="url(#clip0_1078_11032)">
<path d="M20.6999 30.2333L16.6999 18.1666C16.6666 18.0666 16.6666 17.9666 16.6999 17.8666L20.6999 5.79998C20.8666 5.29998 20.2666 4.93332 19.8666 5.26665L6.8999 17.6333C6.6999 17.8333 6.6999 18.1666 6.8999 18.3666L19.8999 30.7333C20.2666 31.1 20.8666 30.7333 20.6999 30.2333Z" fill="#FFB800"/>
<path d="M19.4 17.6333C19.2 17.8333 19.2 18.1667 19.4 18.3667L32.3666 30.7333C32.7333 31.1 33.3333 30.7 33.2 30.2L29.2 18.1333C29.1666 18.0333 29.1666 17.9333 29.2 17.8333L33.2 5.76667C33.3666 5.26667 32.7666 4.90001 32.3666 5.23334L19.4 17.6333Z" fill="#FFB800"/>
</g>
<defs>
<clipPath id="clip0_1078_11032">
<rect width="40" height="40" fill="white" transform="matrix(-1 0 0 -1 40 38)"/>
</clipPath>
</defs>
</svg>
