<svg width="8" height="14" viewBox="0 0 8 14" fill="none" xmlns="http://www.w3.org/2000/svg">
<path d="M1.61255 13.6646C1.3919 13.6651 1.17805 13.5877 1.00815 13.4461C0.912518 13.3663 0.833471 13.2683 0.775531 13.1577C0.717591 13.0472 0.681897 12.9262 0.670492 12.8017C0.659088 12.6773 0.672198 12.5518 0.709071 12.4324C0.745944 12.3131 0.805856 12.2022 0.885375 12.1062L5.11623 7.01271L1.03648 1.90974C0.958031 1.81254 0.899449 1.70069 0.864099 1.58064C0.828749 1.46058 0.817328 1.33468 0.830492 1.21016C0.843656 1.08565 0.881145 0.964982 0.940806 0.855096C1.00047 0.74521 1.08112 0.648271 1.17814 0.569851C1.27585 0.483342 1.39027 0.418089 1.51424 0.378188C1.6382 0.338287 1.76902 0.324599 1.89849 0.337984C2.02796 0.351368 2.15328 0.391536 2.26659 0.455966C2.3799 0.520397 2.47875 0.607698 2.55694 0.712393L7.11833 6.41403C7.25724 6.58407 7.33317 6.79735 7.33317 7.01746C7.33317 7.23757 7.25724 7.45085 7.11833 7.62088L2.3964 13.3225C2.30166 13.4375 2.18131 13.5284 2.04512 13.5879C1.90893 13.6473 1.76073 13.6736 1.61255 13.6646Z" fill="#52525B"/>
</svg>
