<svg width="8" height="16" viewBox="0 0 8 16" fill="none" xmlns="http://www.w3.org/2000/svg">
<path d="M6.44838 15.3336C6.29189 15.3341 6.13726 15.2996 5.99587 15.2325C5.85448 15.1654 5.72991 15.0675 5.63132 14.946L0.571794 8.66088C0.417723 8.47345 0.333496 8.23834 0.333496 7.99571C0.333496 7.75308 0.417723 7.51797 0.571794 7.33053L5.8094 1.04541C5.9872 0.83149 6.2427 0.696963 6.51969 0.671425C6.79669 0.645887 7.07248 0.731429 7.2864 0.909234C7.50032 1.08704 7.63485 1.34254 7.66038 1.61953C7.68592 1.89652 7.60038 2.17232 7.42258 2.38624L2.74016 8.00095L7.26545 13.6157C7.39354 13.7694 7.47491 13.9566 7.49992 14.1552C7.52494 14.3538 7.49255 14.5553 7.4066 14.7361C7.32064 14.9168 7.18472 15.0691 7.0149 15.175C6.84509 15.2809 6.64849 15.3359 6.44838 15.3336Z" fill="#A1A1AA"/>
</svg>
