<svg width="40" height="38" viewBox="0 0 40 38" fill="none" xmlns="http://www.w3.org/2000/svg">
<g clip-path="url(#clip0_1078_11036)">
<path d="M19.3001 5.76668L23.3001 17.8334C23.3334 17.9334 23.3334 18.0334 23.3001 18.1334L19.3001 30.2C19.1334 30.7 19.7334 31.0667 20.1334 30.7333L33.1001 18.3667C33.3001 18.1667 33.3001 17.8334 33.1001 17.6334L20.1001 5.26668C19.7334 4.90002 19.1334 5.26668 19.3001 5.76668Z" fill="#FFB800"/>
<path d="M20.6 18.3667C20.8 18.1667 20.8 17.8333 20.6 17.6333L7.63338 5.26666C7.26671 4.89999 6.66671 5.29999 6.80005 5.79999L10.8 17.8667C10.8334 17.9667 10.8334 18.0667 10.8 18.1667L6.80005 30.2333C6.63338 30.7333 7.23338 31.1 7.63338 30.7667L20.6 18.3667Z" fill="#FFB800"/>
</g>
<defs>
<clipPath id="clip0_1078_11036">
<rect width="40" height="40" fill="white" transform="translate(0 -2)"/>
</clipPath>
</defs>
</svg>
