<svg width="8" height="5" viewBox="0 0 8 5" fill="none" xmlns="http://www.w3.org/2000/svg">
<path id="Vector" d="M7.12497 1.12165C7.12521 1.21771 7.10932 1.31262 7.07845 1.39941C7.04758 1.4862 7.00252 1.56266 6.94659 1.62317L4.05401 4.72873C3.96774 4.8233 3.85954 4.875 3.74787 4.875C3.63621 4.875 3.52801 4.8233 3.44174 4.72873L0.549159 1.51387C0.450706 1.40473 0.388793 1.2479 0.37704 1.07788C0.365287 0.907864 0.404656 0.738581 0.486486 0.607275C0.568317 0.475969 0.685906 0.393396 0.813385 0.377721C0.940864 0.362045 1.06779 0.414551 1.16624 0.523689L3.75029 3.39778L6.33433 0.620135C6.40509 0.54151 6.49126 0.491566 6.58264 0.476212C6.67402 0.460858 6.76679 0.480737 6.84997 0.533497C6.93314 0.586257 7.00324 0.669689 7.05198 0.773921C7.10071 0.878154 7.12604 0.998824 7.12497 1.12165Z" fill="#FFB800"/>
</svg>
