<svg width="19" height="7" viewBox="0 0 19 7" fill="none" xmlns="http://www.w3.org/2000/svg">
<path d="M17.8947 0.00123957L16.1699 0.00346751C16.2607 0.158614 16.3162 0.336963 16.3164 0.529595C16.3168 0.80877 16.2062 1.07665 16.0091 1.27431C15.8119 1.47198 15.5443 1.58322 15.2651 1.58359C14.986 1.58395 14.7181 1.47339 14.5204 1.27624C14.3228 1.07909 14.2115 0.811489 14.2111 0.532314C14.2109 0.339683 14.2659 0.16119 14.3563 0.00581036L4.591 0.0184247C4.68173 0.173571 4.73722 0.35192 4.73747 0.544552C4.73783 0.823727 4.62727 1.09161 4.43012 1.28927C4.23297 1.48693 3.96537 1.59818 3.6862 1.59854C3.40702 1.5989 3.13914 1.48835 2.94148 1.2912C2.74382 1.09404 2.63257 0.826446 2.63221 0.547271C2.63196 0.35464 2.68699 0.176148 2.77732 0.0207676L1.05258 0.0229955C0.773406 0.0233562 0.505808 0.134604 0.308657 0.332266C0.111505 0.529927 0.000949821 0.797811 0.00131045 1.07699L0.00878906 6.86646L18.9561 6.84198L18.9487 1.05251C18.9483 0.773336 18.8371 0.505738 18.6394 0.308587C18.4417 0.111435 18.1738 0.000878938 17.8947 0.00123957Z" fill="#FFB800"/>
</svg>
