<svg width="15" height="15" viewBox="0 0 15 15" fill="none" xmlns="http://www.w3.org/2000/svg">
<path id="Vector" d="M5.10254 1.5C5.10254 1.16722 4.83277 0.897455 4.5 0.897455C4.16722 0.897455 3.89745 1.16722 3.89745 1.5H5.10254ZM3.89745 3.76222C3.89745 4.09499 4.16722 4.36476 4.5 4.36476C4.83277 4.36476 5.10254 4.09499 5.10254 3.76222H3.89745ZM9.89746 3.76222C9.89746 4.09499 10.1672 4.36476 10.5 4.36476C10.8328 4.36476 11.1025 4.09499 11.1025 3.76222H9.89746ZM11.1025 1.50002C11.1025 1.16725 10.8328 0.897477 10.5 0.897477C10.1672 0.897477 9.89746 1.16725 9.89746 1.50002H11.1025ZM1.5 12.1043L2.10255 12.1043V12.1043H1.5ZM1.50001 4.6043L2.10255 4.6043V4.6043H1.50001ZM3.89745 1.5V3.76222H5.10254V1.5H3.89745ZM10.5 2.95684H11.25V1.75175H10.5V2.95684ZM9.89746 2.3543V3.76222H11.1025V2.3543H9.89746ZM11.1025 2.3543V1.50002H9.89746V2.3543H11.1025ZM0.897458 12.1043C0.897456 13.6797 2.17458 14.9568 3.75 14.9568V13.7517C2.84014 13.7517 2.10255 13.0142 2.10255 12.1043L0.897458 12.1043ZM12.8975 12.1043C12.8975 13.0142 12.1599 13.7517 11.25 13.7517V14.9568C12.8254 14.9568 14.1025 13.6797 14.1025 12.1043H12.8975ZM14.1025 4.6043C14.1025 3.02888 12.8254 1.75175 11.25 1.75175V2.95684C12.1599 2.95684 12.8975 3.69443 12.8975 4.6043H14.1025ZM2.10255 4.6043C2.10255 3.69443 2.84014 2.95684 3.75001 2.95684V1.75175C2.17459 1.75175 0.897464 3.02888 0.897464 4.6043H2.10255ZM1.5 6.78883H13.5V5.58374H1.5V6.78883ZM12.8975 4.6043V12.1043H14.1025V4.6043H12.8975ZM2.10255 12.1043L2.10255 4.6043L0.897464 4.6043L0.897458 12.1043H2.10255ZM3.75001 2.95684H10.5V1.75175H3.75001V2.95684ZM11.25 13.7517H3.75V14.9568H11.25V13.7517Z" fill="#5E5E66"/>
</svg>
