<svg width="25" height="25" viewBox="0 0 25 25" fill="none" xmlns="http://www.w3.org/2000/svg">
<path d="M12.5 9.5C10.2904 9.5 8.5 11.2918 8.5 13.5C8.5 15.7096 10.2904 17.5 12.5 17.5C14.7082 17.5 16.5 15.7096 16.5 13.5C16.5 11.2918 14.7082 9.5 12.5 9.5Z" fill="white"/>
<path fill-rule="evenodd" clip-rule="evenodd" d="M18.0996 7.5H20.5C21.5996 7.5 22.5 8.40044 22.5 9.5V18.5C22.5 19.5996 21.5996 20.5 20.5 20.5H4.5C3.40044 20.5 2.5 19.5996 2.5 18.5V9.50022C2.5 8.40067 3.40044 7.50022 4.5 7.50022H6.90044C7.23067 7.50022 7.58511 7.24444 7.68956 6.93089L8.31044 5.06933C8.414 4.75578 8.76956 4.5 9.09956 4.5H15.9004C16.2304 4.5 16.5851 4.75578 16.6898 5.06911L17.3107 6.93067C17.414 7.24422 17.7696 7.5 18.0996 7.5ZM7.5 13.5C7.5 16.2618 9.73822 18.5 12.5 18.5C15.2607 18.5 17.5 16.2618 17.5 13.5C17.5 10.7393 15.2607 8.5 12.5 8.5C9.73822 8.5 7.5 10.7393 7.5 13.5ZM19.1013 10.5228C19.224 10.786 19.4912 10.9684 19.7998 10.9684C20.1719 10.9684 20.4825 10.7044 20.5544 10.3534C20.5646 10.3033 20.57 10.2514 20.57 10.1982C20.57 10.1949 20.57 10.1916 20.5699 10.1883C20.5694 10.1462 20.5655 10.1049 20.5584 10.0646C20.495 9.70373 20.1795 9.42908 19.7998 9.42908C19.6937 9.42908 19.5926 9.45064 19.5005 9.4896C19.4677 9.50344 19.4361 9.51949 19.4059 9.53755C19.2233 9.64648 19.0894 9.82867 19.0453 10.0433C19.035 10.0933 19.0296 10.1451 19.0296 10.1982M19.1013 10.5228C19.0553 10.4241 19.0296 10.3142 19.0296 10.1982L19.1013 10.5228Z" fill="white"/>
</svg>
