<svg width="24" height="24" viewBox="0 0 24 24" fill="none" xmlns="http://www.w3.org/2000/svg">
<path d="M0.75 4.5C0.75 2.42893 2.42893 0.75 4.5 0.75H19.5C21.5711 0.75 23.25 2.42893 23.25 4.5V19.5C23.25 21.5711 21.5711 23.25 19.5 23.25H4.5C2.42893 23.25 0.75 21.5711 0.75 19.5V4.5Z" fill="#FFF0B2"/>
<path d="M17.1684 7.31882C17.4276 7.11207 17.7725 6.99776 18.1304 7.00003C18.4883 7.0023 18.8311 7.12096 19.0865 7.33098C19.342 7.541 19.4901 7.82594 19.4995 8.12569C19.509 8.42543 19.3791 8.71653 19.1372 8.93756L11.7954 16.6305C11.6691 16.7444 11.5167 16.8358 11.3474 16.8993C11.178 16.9627 10.9951 16.9969 10.8095 16.9998C10.624 17.0027 10.4397 16.9742 10.2676 16.916C10.0956 16.8579 9.93927 16.7712 9.80807 16.6613L4.93924 12.5821C4.80365 12.4762 4.6949 12.3485 4.61947 12.2067C4.54404 12.0649 4.50348 11.9118 4.50021 11.7565C4.49695 11.6013 4.53103 11.4471 4.60044 11.3031C4.66985 11.1591 4.77316 11.0283 4.90421 10.9185C5.03526 10.8087 5.19136 10.7222 5.3632 10.664C5.53504 10.6059 5.7191 10.5773 5.9044 10.5801C6.0897 10.5828 6.27245 10.6168 6.44173 10.68C6.61102 10.7432 6.76337 10.8343 6.88972 10.9479L10.7428 14.1746L17.1334 7.35274C17.1449 7.34087 17.1572 7.32954 17.1702 7.31882H17.1684Z" fill="#FF9900"/>
</svg>
