<svg width="28" height="20" viewBox="0 0 28 20" fill="none" xmlns="http://www.w3.org/2000/svg">
<path d="M24.2684 0.517528C24.4338 0.353672 24.6313 0.223501 24.8492 0.134637C25.0671 0.0457723 25.3011 0 25.5375 0C25.7738 0 26.0078 0.0457723 26.2258 0.134637C26.4437 0.223501 26.6411 0.353672 26.8066 0.517528C27.4999 1.19758 27.5096 2.29648 26.8308 2.98829L12.496 19.4365C12.3332 19.61 12.1357 19.7494 11.9156 19.8462C11.6954 19.9431 11.4572 19.9953 11.2155 19.9997C10.9738 20.0041 10.7338 19.9606 10.51 19.8719C10.2862 19.7831 10.0835 19.651 9.91413 19.4836L1.19153 10.9041C0.855125 10.5711 0.666687 10.1234 0.666687 9.65699C0.666687 9.19062 0.855125 8.74284 1.19153 8.40985C1.35697 8.24599 1.55444 8.11582 1.77236 8.02696C1.99028 7.93809 2.22427 7.89232 2.46064 7.89232C2.69701 7.89232 2.93101 7.93809 3.14893 8.02696C3.36685 8.11582 3.56431 8.24599 3.72976 8.40985L11.1287 15.688L24.2199 0.569297C24.235 0.551111 24.2511 0.533824 24.2684 0.517528Z" fill="white"/>
</svg>
