<svg width="34" height="34" viewBox="0 0 34 34" fill="none" xmlns="http://www.w3.org/2000/svg">
<path d="M25.2664 23.0786C23.5237 23.4971 21.7044 23.4768 19.9714 23.0196C18.2384 22.5624 16.6459 21.6825 15.3364 20.4588C14.0269 19.2351 13.0413 17.7057 12.4679 16.0077C11.8946 14.3096 11.7513 12.4958 12.0509 10.7288C12.0053 10.7728 11.9572 10.8141 11.9068 10.8524C11.5498 11.124 11.1035 11.2247 10.211 11.4262L9.40137 11.6098C6.26483 12.32 4.69656 12.6744 4.32298 13.8742C3.95067 15.0727 5.01914 16.3235 7.15734 18.8239L7.7107 19.4703C8.31761 20.1805 8.62234 20.5362 8.75876 20.9748C8.89519 21.4147 8.84929 21.889 8.75749 22.8363L8.67334 23.6995C8.35076 27.0362 8.18883 28.704 9.1655 29.4448C10.1422 30.1868 11.611 29.5111 14.5461 28.1583L15.3073 27.8089C16.1411 27.4239 16.5581 27.2326 17.0005 27.2326C17.4429 27.2326 17.8598 27.4239 18.695 27.8089L19.4536 28.1583C22.39 29.5098 23.8588 30.1855 24.8342 29.446C25.8121 28.704 25.6502 27.0362 25.3276 23.6995L25.2664 23.0786Z" fill="#FFC700"/>
<path opacity="0.5" d="M13.37 8.59526L12.9518 9.34497C12.4928 10.1686 12.2633 10.5805 11.9063 10.852C11.9573 10.8138 12.0045 10.773 12.0504 10.7284C11.7507 12.4956 11.894 14.3095 12.4674 16.0077C13.0409 17.7059 14.0266 19.2354 15.3362 20.4591C16.6459 21.6829 18.2386 22.5627 19.9718 23.0198C21.7049 23.4768 23.5244 23.4969 25.2672 23.0782L25.2417 22.8359C25.1512 21.8886 25.1053 21.4143 25.2417 20.9744C25.3782 20.5358 25.6816 20.1801 26.2898 19.4699L26.8431 18.8235C28.9814 16.3244 30.0498 15.0736 29.6762 13.8738C29.3039 12.674 27.7357 12.3183 24.5991 11.6094L23.7882 11.4258C22.897 11.2243 22.4507 11.1236 22.0924 10.852C21.7354 10.5805 21.5059 10.1686 21.0469 9.34497L20.63 8.59526C19.0145 5.69842 18.2075 4.25 17 4.25C15.7926 4.25 14.9855 5.69842 13.37 8.59526Z" fill="#FFC700"/>
</svg>
