<svg width="15" height="14" viewBox="0 0 15 14" fill="none" xmlns="http://www.w3.org/2000/svg">
<g id="Clock">
<path id="Vector" d="M7.50039 0.399902C3.85899 0.399902 0.900391 3.3585 0.900391 6.9999C0.900391 10.6413 3.85899 13.5999 7.50039 13.5999C11.1418 13.5999 14.1004 10.6413 14.1004 6.9999C14.1004 3.3585 11.1418 0.399902 7.50039 0.399902ZM7.50039 0.999902C10.8178 0.999902 13.5004 3.6828 13.5004 6.9999C13.5004 10.317 10.8175 12.9999 7.50039 12.9999C4.18329 12.9999 1.50039 10.317 1.50039 6.9999C1.50039 3.6828 4.18329 0.999902 7.50039 0.999902Z" fill="#5E5E66" stroke="#5E5E66" stroke-width="0.7"/>
<path id="Vector_2" d="M7.50072 2.2002C7.42115 2.2002 7.34485 2.2318 7.28858 2.28806C7.23232 2.34432 7.20072 2.42063 7.20072 2.5002V6.876L4.88862 9.18809C4.83238 9.24435 4.80078 9.32065 4.80078 9.4002C4.80078 9.47974 4.83238 9.55604 4.88862 9.6123C4.94488 9.66854 5.02117 9.70013 5.10072 9.70013C5.18027 9.70013 5.25656 9.66854 5.31282 9.6123L7.71282 7.2123C7.76908 7.15605 7.8007 7.07975 7.80072 7.0002V2.5002C7.80072 2.42063 7.76911 2.34432 7.71285 2.28806C7.65659 2.2318 7.58028 2.2002 7.50072 2.2002Z" fill="#5E5E66" stroke="#5E5E66" stroke-width="0.7"/>
</g>
</svg>
