<svg width="24" height="24" viewBox="0 0 24 24" fill="none" xmlns="http://www.w3.org/2000/svg">
<path fill-rule="evenodd" clip-rule="evenodd" d="M7.20252 5.4038H15.3982C16.6099 5.4038 17.6008 6.3943 17.6008 7.60428V18.7995C17.6008 20.0101 16.6093 21 15.3982 21H7.20252C5.99085 21 5 20.0101 5 18.7995V7.60428C5 6.39373 5.99142 5.4038 7.20252 5.4038ZM7.57176 3.89428C7.32467 3.89428 7.1242 3.69399 7.1242 3.44714C7.1242 3.2003 7.32469 3 7.57176 3H15.4195C16.6797 3 17.8249 3.51471 18.6549 4.34384C19.4848 5.17297 20 6.31719 20 7.57624V16.8436C20 17.0904 19.7995 17.2907 19.5524 17.2907C19.3054 17.2907 19.1049 17.0904 19.1049 16.8436V7.57624C19.1049 6.56421 18.6903 5.64417 18.0218 4.97698C17.354 4.30922 16.4325 3.89556 15.4201 3.89556H7.57237L7.57176 3.89428Z" fill="#A1A1AA"/>
</svg>
