<svg width="28" height="28" viewBox="0 0 28 28" fill="none" xmlns="http://www.w3.org/2000/svg">
<path d="M16.3749 14.0003L26.8414 3.53383C27.1564 3.21889 27.3333 2.79174 27.3333 2.34634C27.3333 1.90095 27.1564 1.4738 26.8414 1.15886C26.5265 0.843923 26.0993 0.666992 25.6539 0.666992C25.2085 0.666992 24.7814 0.843923 24.4665 1.15886L14 11.6254L3.53346 1.15886C3.21852 0.843923 2.79137 0.666992 2.34598 0.666992C1.90059 0.666992 1.47344 0.843923 1.1585 1.15886C0.843557 1.4738 0.666626 1.90095 0.666626 2.34634C0.666626 2.79174 0.843557 3.21889 1.1585 3.53383L11.625 14.0003L1.1585 24.4668C0.843557 24.7818 0.666626 25.2089 0.666626 25.6543C0.666626 26.0997 0.843557 26.5268 1.1585 26.8418C1.47344 27.1567 1.90059 27.3337 2.34598 27.3337C2.79137 27.3337 3.21852 27.1567 3.53346 26.8418L14 16.3753L24.4665 26.8418C24.7814 27.1567 25.2085 27.3337 25.6539 27.3337C26.0993 27.3337 26.5265 27.1567 26.8414 26.8418C27.1564 26.5268 27.3333 26.0997 27.3333 25.6543C27.3333 25.2089 27.1564 24.7818 26.8414 24.4668L16.3749 14.0003Z" fill="white"/>
</svg>
