<svg width="52" height="31" viewBox="0 0 52 31" fill="none" xmlns="http://www.w3.org/2000/svg">
<path d="M49.6504 1.85794C49.6137 1.48805 49.4421 1.14482 49.1687 0.894173C48.8952 0.64353 48.5392 0.503151 48.1689 0.5L48.032 0.5L20.5871 3.0421C20.1963 3.08005 19.8361 3.27096 19.5844 3.57351C19.3328 3.87605 19.2099 4.2659 19.2424 4.6587L19.4478 6.96639L20.1563 7.06339L19.9309 4.60212C19.914 4.39146 19.98 4.18254 20.1147 4.02012C20.2494 3.8577 20.4421 3.75471 20.6515 3.7332L48.0964 1.19514H48.1689C48.3686 1.19403 48.5615 1.26744 48.7103 1.40112C48.8591 1.53481 48.9531 1.71922 48.9741 1.91856L50.6408 20.3033C50.6567 20.5127 50.5907 20.72 50.457 20.8814C50.3232 21.0429 50.1321 21.1457 49.9242 21.1682L32.7253 22.7282L32.6287 23.4395L49.9886 21.8229C50.3794 21.785 50.7396 21.5941 50.9913 21.2915C51.2429 20.989 51.3658 20.5991 51.3333 20.2063L49.6504 1.85794Z" fill="#D4D4D8"/>
<path d="M32.6523 10.7492C32.6257 10.7071 32.5903 10.6712 32.5486 10.644C32.5069 10.6168 32.4599 10.5989 32.4107 10.5916L3.69365 6.64709H3.64534C3.56093 6.64726 3.47942 6.67802 3.4158 6.73371C3.35219 6.7894 3.31075 6.86628 3.29911 6.95021L0.662109 26.2928C0.664208 26.3264 0.664208 26.3602 0.662109 26.3938H0.662109H0.726525L0.798992 26.4908C0.853139 26.5042 0.905759 26.5231 0.956004 26.5474L29.6489 30.5H29.6972C29.7817 30.4998 29.8632 30.4691 29.9268 30.4134C29.9904 30.3577 30.0318 30.2808 30.0435 30.1969L30.0918 30.0029L30.12 29.9827L32.7087 10.9877C32.7193 10.9039 32.6993 10.8192 32.6523 10.7492ZM1.75314 25.9614L13.1748 14.5967L19.4915 25.7795L21.1018 28.6086L1.75314 25.9614ZM21.9996 28.7419L20.2443 25.63L24.4152 21.4471L29.0652 29.7119L21.9996 28.7419ZM29.5483 29.0976L24.8178 20.7075C24.7892 20.6589 24.7507 20.617 24.705 20.5843C24.6592 20.5515 24.6071 20.5288 24.5521 20.5175H24.5118C24.4162 20.5207 24.3249 20.5579 24.2542 20.6226L19.878 25.0399L13.5451 13.8652C13.5198 13.8154 13.483 13.7723 13.4378 13.7396C13.3925 13.7069 13.3402 13.6855 13.2851 13.6772C13.23 13.6689 13.1737 13.6739 13.1209 13.6919C13.0681 13.7098 13.0203 13.7401 12.9815 13.7803L1.50756 25.238L3.94326 7.37052L31.9719 11.2221L29.5483 29.0976Z" fill="#D4D4D8"/>
<path d="M20.8971 17.8419C21.1212 17.9123 21.3547 17.9478 21.5896 17.947C22.1598 17.9496 22.7112 17.7426 23.1399 17.3652C23.5685 16.9877 23.8448 16.4658 23.9166 15.898C24.0004 15.2761 23.8358 14.6462 23.4586 14.1457C23.0815 13.6452 22.5225 13.3148 21.9036 13.2265C21.7942 13.2111 21.6839 13.203 21.5735 13.2023C21.047 13.2011 20.5355 13.3778 20.1214 13.7041C19.7073 14.0304 19.4147 14.4871 19.2907 15.0008C19.2703 15.0834 19.2541 15.167 19.2424 15.2513C19.1804 15.6983 19.246 16.1538 19.4317 16.5648C19.5706 16.8706 19.7734 17.1428 20.0262 17.3631C20.279 17.5835 20.576 17.7467 20.8971 17.8419ZM19.9268 15.3483C19.9497 15.195 19.993 15.0455 20.0557 14.9038C20.1789 14.6048 20.3887 14.3499 20.6578 14.1719C20.927 13.9939 21.2431 13.9011 21.5654 13.9055C21.6445 13.9001 21.7239 13.9001 21.8029 13.9055C22.0204 13.9346 22.2298 14.0071 22.4189 14.1187C22.608 14.2304 22.7729 14.379 22.9039 14.5556C23.0348 14.7323 23.1292 14.9335 23.1815 15.1474C23.2337 15.3613 23.2427 15.5835 23.208 15.801C23.146 16.2002 22.9449 16.5644 22.6403 16.8286C22.3358 17.0929 21.9478 17.24 21.5453 17.2438C21.4742 17.2487 21.4029 17.2487 21.3319 17.2438C20.8988 17.1738 20.5091 16.9392 20.2438 16.5885C19.9784 16.2378 19.8577 15.7981 19.9067 15.3605L19.9268 15.3483Z" fill="#D4D4D8"/>
<path d="M35.136 16.7345C35.1715 16.7504 35.2099 16.7587 35.2487 16.7588C35.3136 16.7596 35.377 16.7398 35.4299 16.7022L40.4341 13.1214C40.4837 13.086 40.5233 13.0383 40.5492 12.983C40.575 12.9277 40.5863 12.8667 40.5818 12.8058C40.5774 12.7449 40.5574 12.6861 40.5238 12.6352C40.4901 12.5843 40.444 12.543 40.3899 12.5152L34.8824 9.77101C34.8312 9.75062 34.7764 9.74099 34.7213 9.74272C34.664 9.73926 34.6069 9.75185 34.5563 9.77909C34.5099 9.81878 34.4732 9.86849 34.4488 9.92449C34.4244 9.9805 34.413 10.0413 34.4154 10.1024L34.9146 16.4314C34.9182 16.498 34.941 16.5622 34.9803 16.616C35.0196 16.6699 35.0737 16.711 35.136 16.7345ZM39.6088 12.8789L35.5225 15.809L35.1199 10.6318L39.6088 12.8789Z" fill="#D4D4D8"/>
</svg>
