<svg width="34" height="34" viewBox="0 0 34 34" fill="none" xmlns="http://www.w3.org/2000/svg">
<path d="M11.783 15.0217H16.1004V28.3331H11.783V15.0217Z" fill="#FFC700"/>
<path d="M17.8995 18.6284H22.217V28.3333H17.8995V18.6284Z" fill="#FFC700"/>
<path d="M24.0159 12.5422H28.3333V28.3328H24.0159V12.5422Z" fill="#FFC700"/>
<path d="M5.66663 20.0443H9.98409V28.3334H5.66663V20.0443Z" fill="#FFC700"/>
<path d="M7.8253 16.7874C8.81859 16.7874 9.62406 15.9773 9.62406 14.9788C9.62406 14.742 9.57575 14.5171 9.49336 14.3095L12.9549 11.4668C13.2385 11.6539 13.5768 11.7649 13.9414 11.7649C14.4043 11.7649 14.822 11.5839 15.1409 11.2952L18.308 13.1689C18.2778 13.2996 18.2588 13.4341 18.2588 13.5742C18.2588 14.5736 19.064 15.3836 20.0578 15.3836C21.0516 15.3836 21.8571 14.5738 21.8571 13.5742C21.8571 13.2758 21.7782 12.9987 21.651 12.7505L25.3416 9.07099C25.5918 9.20351 25.872 9.2855 26.1745 9.2855C27.1682 9.2855 27.9735 8.47536 27.9735 7.47688C27.9735 6.47748 27.1684 5.66663 26.1745 5.66663C25.1807 5.66663 24.3756 6.47748 24.3756 7.47688C24.3756 7.77496 24.4545 8.05238 24.5813 8.30063L20.8907 11.9796C20.6405 11.847 20.3603 11.7651 20.0578 11.7651C19.5947 11.7651 19.1773 11.946 18.8583 12.2347L15.6911 10.3612C15.7212 10.2303 15.7405 10.0957 15.7405 9.95572C15.7405 8.95633 14.935 8.14638 13.9417 8.14638C12.9481 8.14638 12.1424 8.95651 12.1424 9.95572C12.1424 10.1928 12.1908 10.4174 12.273 10.625L8.81212 13.4673C8.52857 13.2797 8.19004 13.1687 7.82567 13.1687C6.83202 13.1687 6.02637 13.9794 6.02637 14.979C6.02637 15.9773 6.83166 16.7874 7.82531 16.7874L7.8253 16.7874Z" fill="#FFC700"/>
</svg>
