<svg width="8" height="11" viewBox="0 0 8 11" fill="none" xmlns="http://www.w3.org/2000/svg">
<path fill-rule="evenodd" clip-rule="evenodd" d="M0.69529 1.74469H4.38461L6.42595 3.88218V9.77176C6.42595 10.1723 6.11293 10.5 5.73046 10.5H0.695486C0.313003 10.5 0 10.1722 0 9.77176V2.47314C0 2.07264 0.313021 1.7449 0.695486 1.7449L0.69529 1.74469ZM2.26952 0.5H5.95884L8 2.6373V8.52688C8 8.92738 7.68698 9.25512 7.30451 9.25512H6.69384V3.7657L4.49565 1.46398H1.57403V1.22824C1.57403 0.827745 1.88705 0.5 2.26952 0.5V0.5ZM0.963693 8.75722H5.46162V9.03791H0.963693V8.75722ZM0.963693 4.87161H3.42152V5.15245H0.963693V4.87161ZM0.963693 6.16678H5.46162V6.44762H0.963693V6.16678ZM0.963693 7.46196H5.46162V7.74279H0.963693V7.46196ZM4.38448 2.45072L5.75164 3.88212H4.38448V2.45072Z" fill="#FFFBEB"/>
</svg>
