<svg width="24" height="24" viewBox="0 0 24 24" fill="none" xmlns="http://www.w3.org/2000/svg">
<g id="Document">
<g id="Group">
<path id="Vector" fill-rule="evenodd" clip-rule="evenodd" d="M5.39058 5.24044H12.7692L16.8519 9.08792V19.6892C16.8519 20.4101 16.2259 21 15.4609 21H5.39097C4.62601 21 4 20.41 4 19.6892V6.55165C4 5.83075 4.62604 5.24081 5.39097 5.24081L5.39058 5.24044ZM8.53904 3H15.9177L20 6.84714V17.4484C20 18.1693 19.374 18.7592 18.609 18.7592H17.3877V8.87826L12.9913 4.73517H7.14807V4.31084C7.14807 3.58994 7.77411 3 8.53904 3ZM5.92739 17.863H14.9232V18.3682H5.92739V17.863ZM5.92739 10.8689H10.843V11.3744H5.92739V10.8689ZM5.92739 13.2002H14.9232V13.7057H5.92739V13.2002ZM5.92739 15.5315H14.9232V16.037H5.92739V15.5315ZM12.769 6.51129L15.5033 9.08782H12.769V6.51129Z" fill="#FFB800"/>
</g>
</g>
</svg>
