<svg width="23" height="22" viewBox="0 0 23 22" fill="none" xmlns="http://www.w3.org/2000/svg">
<path d="M11.25 2.75C6.69947 2.75 3 6.44947 3 11C3 15.5505 6.69947 19.25 11.25 19.25C15.8005 19.25 19.5 15.5505 19.5 11C19.5 6.44947 15.8005 2.75 11.25 2.75ZM14.6195 9.78421L11.1805 13.7095C11.0068 13.9005 10.7637 14.022 10.5032 14.022H10.4684C10.2252 14.022 9.98207 13.9179 9.80836 13.7441L7.67207 11.6253C7.30727 11.2605 7.30727 10.6527 7.67207 10.2879C8.03687 9.9231 8.64467 9.9231 9.00947 10.2879L10.4163 11.6947L13.2126 8.51629C13.5599 8.11685 14.1504 8.08208 14.55 8.42942C14.932 8.79422 14.9668 9.38484 14.6194 9.78428L14.6195 9.78421Z" fill="#15C872"/>
</svg>
