<svg width="19" height="18" viewBox="0 0 19 18" fill="none" xmlns="http://www.w3.org/2000/svg">
<path fill-rule="evenodd" clip-rule="evenodd" d="M9.06683 0.448078C9.2259 0.289393 9.44164 0.200244 9.6666 0.200244C9.89155 0.200244 10.1073 0.289393 10.2664 0.448078C10.4254 0.606763 10.5148 0.821986 10.5148 1.0464V9.90989L12.9958 7.41373C13.1561 7.25383 13.3734 7.16401 13.6001 7.16401C13.8268 7.16401 14.0442 7.25383 14.2045 7.41373C14.3647 7.57363 14.4548 7.79049 14.4548 8.01662C14.4548 8.24274 14.3647 8.45961 14.2045 8.6195L10.2815 12.533L10.1543 12.6387H10.1119L10.0059 12.7022H9.34852L9.2425 12.6387H9.20009L9.07286 12.533L5.12874 8.64066C4.96846 8.48076 4.87842 8.2639 4.87842 8.03777C4.87842 7.81165 4.96846 7.59478 5.12874 7.43488C5.28903 7.27499 5.50641 7.18516 5.73308 7.18516C5.95976 7.18516 6.17714 7.27499 6.33742 7.43488L8.8184 9.90989V1.0464C8.8184 0.821986 8.90776 0.606763 9.06683 0.448078ZM17.0187 10.7711C17.1778 10.6125 17.3935 10.5233 17.6185 10.5233C17.8434 10.5233 18.0592 10.6125 18.2182 10.7711C18.3773 10.9298 18.4667 11.145 18.4667 11.3695V15.2618C18.4667 15.935 18.1986 16.5807 17.7214 17.0568C17.2442 17.5328 16.5969 17.8003 15.9221 17.8003H3.41116C2.73629 17.8003 2.08907 17.5328 1.61186 17.0568C1.13466 16.5807 0.866569 15.935 0.866569 15.2618V11.3695C0.866569 11.145 0.955932 10.9298 1.115 10.7711C1.27407 10.6125 1.48981 10.5233 1.71477 10.5233C1.93972 10.5233 2.15546 10.6125 2.31453 10.7711C2.4736 10.9298 2.56296 11.145 2.56296 11.3695V15.2618C2.56296 15.4862 2.65233 15.7014 2.81139 15.8601C2.97046 16.0188 3.1862 16.1079 3.41116 16.1079H15.9221C16.147 16.1079 16.3628 16.0188 16.5218 15.8601C16.6809 15.7014 16.7703 15.4862 16.7703 15.2618V11.3695C16.7703 11.145 16.8596 10.9298 17.0187 10.7711Z" fill="#5E5E66"/>
</svg>
