<svg width="30" height="31" viewBox="0 0 30 31" fill="none" xmlns="http://www.w3.org/2000/svg">
<g id="Frame 11004">
<rect y="0.5" width="30" height="30" rx="15" fill="#27272A"/>
<path id="Vector" fill-rule="evenodd" clip-rule="evenodd" d="M15 9C14.6287 9 14.2727 9.07629 14.0101 9.21209C13.7476 9.34788 13.6001 9.53206 13.6001 9.72411L13.6001 20.3183L10.4644 18.425C10.2229 18.2791 9.8791 18.1887 9.50877 18.1739C9.13843 18.159 8.77186 18.2209 8.4897 18.3458C8.20754 18.4708 8.03289 18.6486 8.00419 18.8402C7.97549 19.0318 8.09508 19.2214 8.33665 19.3673L13.9361 22.7465C14.0675 22.826 14.2307 22.8898 14.4143 22.9336C14.598 22.9773 14.7978 23 15 23C15.2022 23 15.402 22.9773 15.5857 22.9336C15.7693 22.8898 15.9325 22.826 16.0639 22.7465L21.6634 19.3673C21.783 19.2951 21.8739 19.2113 21.9309 19.1209C21.988 19.0304 22.01 18.935 21.9958 18.8402C21.9816 18.7453 21.9314 18.6529 21.8481 18.568C21.7648 18.4832 21.65 18.4077 21.5103 18.3458C21.3706 18.284 21.2087 18.2369 21.0338 18.2074C20.859 18.1779 20.6746 18.1665 20.4912 18.1739C20.3079 18.1812 20.1291 18.2072 19.9651 18.2503C19.8011 18.2934 19.6552 18.3527 19.5356 18.425L16.3999 20.3174V9.72411C16.3999 9.3244 15.7727 9 15 9Z" fill="#FFB800"/>
</g>
</svg>
