<svg width="30" height="30" viewBox="0 0 30 30" fill="none" xmlns="http://www.w3.org/2000/svg">
<g id="Happy" clip-path="url(#clip0_577_4778)">
<g id="Vector" filter="url(#filter0_dd_577_4778)">
<path d="M28.4766 15C28.4766 22.4431 22.4431 28.4766 15 28.4766C12.5257 28.4766 10.2074 27.8098 8.21467 26.6459L4.51295 28.4766V23.4637C2.64264 21.1507 1.52344 18.206 1.52344 15C1.52344 7.55689 7.55689 1.52344 15 1.52344C22.4431 1.52344 28.4766 7.55689 28.4766 15Z" fill="#FFB800"/>
</g>
<path id="Vector_2" d="M8.00278 11.4843L9.36854 10.1185C9.83606 9.65104 10.5967 9.65104 11.0642 10.1185L12.4299 11.4843C12.573 11.6273 12.7604 11.6988 12.9479 11.6988C13.1353 11.6988 13.3227 11.6273 13.4658 11.4843C13.7518 11.1983 13.7518 10.7346 13.4658 10.4485L12.1 9.08269C11.0613 8.04399 9.37141 8.04411 8.33272 9.08269L6.96696 10.4485C6.68091 10.7346 6.68096 11.1983 6.96696 11.4843C7.25302 11.7703 7.71678 11.7703 8.00278 11.4843ZM17.5701 11.4843L18.9359 10.1185C19.4034 9.65099 20.1641 9.65093 20.6316 10.1185L21.9974 11.4843C22.1404 11.6273 22.3278 11.6988 22.5153 11.6988C22.7027 11.6988 22.8902 11.6273 23.0332 11.4843C23.3192 11.1983 23.3192 10.7346 23.0332 10.4485L21.6674 9.08269C20.6287 8.04399 18.9388 8.04411 17.9001 9.08269L16.5344 10.4485C16.2484 10.7346 16.2484 11.1983 16.5344 11.4843C16.8204 11.7703 17.2841 11.7703 17.5701 11.4843ZM20.7624 15.8036C20.4763 15.5176 20.0126 15.5176 19.7266 15.8036C19.4406 16.0896 19.4406 16.5533 19.7266 16.8394L20.4588 17.5716C19.4716 19.6595 17.3337 21.0327 15 21.0327C12.6664 21.0327 10.5285 19.6594 9.54134 17.5716L10.2735 16.8394C10.5595 16.5533 10.5595 16.0896 10.2735 15.8036C9.98747 15.5176 9.52376 15.5176 9.2377 15.8036L7.07466 17.9666C6.78866 18.2527 6.78866 18.7164 7.07466 19.0024C7.21768 19.1454 7.40512 19.2169 7.59257 19.2169C7.78001 19.2169 7.96745 19.1454 8.11048 19.0024L8.45395 18.659C9.00139 19.639 9.763 20.4847 10.6959 21.1398C11.9609 22.028 13.4492 22.4976 15 22.4976C16.5508 22.4976 18.0392 22.028 19.3042 21.1398C20.2372 20.4847 20.9987 19.639 21.5461 18.659L21.8896 19.0024C22.0326 19.1454 22.2201 19.2169 22.4075 19.2169C22.595 19.2169 22.7824 19.1454 22.9254 19.0024C23.2114 18.7164 23.2114 18.2527 22.9254 17.9666L20.7624 15.8036Z" fill="#27272A"/>
</g>
<defs>
<filter id="filter0_dd_577_4778" x="0.323437" y="0.0234375" width="29.6531" height="30.2031" filterUnits="userSpaceOnUse" color-interpolation-filters="sRGB">
<feFlood flood-opacity="0" result="BackgroundImageFix"/>
<feColorMatrix in="SourceAlpha" type="matrix" values="0 0 0 0 0 0 0 0 0 0 0 0 0 0 0 0 0 0 127 0" result="hardAlpha"/>
<feOffset dx="0.5" dy="0.75"/>
<feGaussianBlur stdDeviation="0.5"/>
<feColorMatrix type="matrix" values="0 0 0 0 0 0 0 0 0 0 0 0 0 0 0 0 0 0 0.6 0"/>
<feBlend mode="normal" in2="BackgroundImageFix" result="effect1_dropShadow_577_4778"/>
<feColorMatrix in="SourceAlpha" type="matrix" values="0 0 0 0 0 0 0 0 0 0 0 0 0 0 0 0 0 0 127 0" result="hardAlpha"/>
<feOffset dx="-0.2" dy="-0.5"/>
<feGaussianBlur stdDeviation="0.5"/>
<feColorMatrix type="matrix" values="0 0 0 0 0 0 0 0 0 0 0 0 0 0 0 0 0 0 0.6 0"/>
<feBlend mode="normal" in2="effect1_dropShadow_577_4778" result="effect2_dropShadow_577_4778"/>
<feBlend mode="normal" in="SourceGraphic" in2="effect2_dropShadow_577_4778" result="shape"/>
</filter>
<clipPath id="clip0_577_4778">
<rect width="30" height="30" fill="white"/>
</clipPath>
</defs>
</svg>
