<svg width="38" height="38" viewBox="0 0 38 38" fill="none" xmlns="http://www.w3.org/2000/svg">
<g id="eraser">
<g id="Group">
<path id="Vector" d="M14.8722 34.009C13.4766 35.4045 11.2296 35.4046 9.83403 34.009L3.99149 28.1664C2.59593 26.7709 2.59594 24.5239 3.9915 23.1284L20.7147 6.40511C22.1103 5.00956 24.3573 5.00944 25.7528 6.40511L31.5954 12.2477C32.9909 13.6432 32.9909 15.8901 31.5954 17.2857C25.7789 23.1022 20.8363 28.0449 14.8722 34.009Z" fill="#FFB800"/>
<path id="Vector_2" d="M16.8608 32.0202C15.4358 33.4451 13.1651 33.4688 11.7695 32.0733L5.92703 26.2307C4.53146 24.8352 4.55514 22.5645 5.98012 21.1395L23.0558 4.06386C24.4807 2.63888 26.7514 2.6152 28.147 4.01077L33.9895 9.85328C35.3851 11.2488 35.3614 13.5195 33.9364 14.9445C27.9974 20.8835 22.9506 25.9303 16.8608 32.0202Z" fill="black"/>
<path id="Vector_3" d="M14.7472 12.3724L23.1089 4.01077C24.5044 2.6152 26.7514 2.6152 28.147 4.01077L33.9895 9.85328C35.3851 11.2488 35.3851 13.4959 33.9895 14.8914L25.6279 23.253L14.7472 12.3724Z" fill="#FFB800"/>
<path id="Vector_4" d="M27.7183 21.1626L25.6279 23.253L17.2663 31.6146C15.8707 33.0102 13.6237 33.0102 12.2282 31.6146L6.38565 25.7721C4.99008 24.3766 4.99008 22.1295 6.38565 20.734L23.1089 4.01077C24.5044 2.6152 26.7514 2.6152 28.147 4.01077L33.9895 9.85328C35.3851 11.2488 35.3851 13.4959 33.9895 14.8914L29.8087 19.0722" stroke="#27272A" stroke-linecap="round" stroke-linejoin="round"/>
<path id="Vector_5" d="M16.4442 13.7725L17.7416 15.0697L20.3362 17.6645L25.5255 22.8537M6.90818 20.1947C6.90818 20.1947 7.25132 19.8956 4.44781 22.6938C2.62488 24.5167 2.46122 27.2887 4.08155 28.9089L9.09165 33.9191C10.712 35.5394 13.484 35.3757 15.3068 33.5528L19.0963 29.7962" stroke="#27272A" stroke-linecap="round" stroke-linejoin="round"/>
</g>
</g>
</svg>
