<svg width="24" height="24" viewBox="0 0 24 24" fill="none" xmlns="http://www.w3.org/2000/svg">
<path fill-rule="evenodd" clip-rule="evenodd" d="M12.1113 5.01996C8.2036 5.01996 5.04509 8.15996 5.04509 12L5.04495 12C5.04495 15.84 8.20349 18.98 12.1112 18.98V21C7.0899 21 3 16.96 3 12C3 7.04 7.0899 3 12.1112 3L12.1113 5.01996ZM15.9788 6.99992L21.0001 11.9999L20.9799 12L20.9797 12.02L15.9585 17C15.5333 17.44 14.8246 17.44 14.3792 17C13.9338 16.58 13.9338 15.88 14.3792 15.44L16.7279 13.1201H11.0587C10.4513 13.1201 9.94509 12.64 9.94509 12.02C9.94509 11.42 10.4311 10.92 11.0587 10.92H13.6707L16.7482 10.9199L14.3996 8.55992C13.9541 8.13999 13.9541 7.43992 14.3996 6.99992C14.8247 6.55992 15.5334 6.55992 15.9788 6.99992Z" fill="#FFC700"/>
</svg>
