<svg width="18" height="30" viewBox="0 0 18 30" fill="none" xmlns="http://www.w3.org/2000/svg">
<path fill-rule="evenodd" clip-rule="evenodd" d="M10.9769 1.96182C10.9769 2.18001 10.941 2.38989 10.8748 2.58595C11.4384 2.82421 11.9565 3.16886 12.3981 3.60704C13.3046 4.50659 13.8138 5.72664 13.8138 6.99879C13.8138 7.80884 13.6113 8.38674 13.2538 8.7987C13.5629 8.9513 13.7085 9.53556 13.581 10.1829C13.4428 10.8845 13.0355 11.3975 12.6666 11.3396C11.9216 13.4861 10.3524 14.9589 9 14.9589C7.67236 14.9589 6.02012 13.6232 5.28346 11.3196C4.95036 11.2822 4.58189 10.8401 4.40852 10.2353C4.21053 9.54462 4.34137 8.90148 4.7004 8.79148C4.34678 8.37999 4.14662 7.80412 4.14662 6.99879C4.14662 5.72664 4.65587 4.50659 5.56235 3.60704C6.01296 3.15988 6.54337 2.81012 7.12037 2.57143C7.05721 2.37954 7.02307 2.17464 7.02307 1.96182C7.02307 0.878337 7.90817 0 9 0C10.0918 0 10.9769 0.878337 10.9769 1.96182ZM8.98023 9.814C10.3149 9.814 11.5235 9.77229 12.3984 9.39935C12.3274 9.55435 12.27 9.7309 12.2325 9.92133C12.146 10.3605 12.1852 10.7706 12.3158 11.0366C12.089 11.7431 11.7682 12.3754 11.3945 12.9025C10.6361 13.9722 9.72318 14.5303 9 14.5303C8.29894 14.5303 7.38664 14.0473 6.63004 13.0401C6.24171 12.5231 5.90439 11.879 5.67023 11.1205C5.84301 10.8582 5.87654 10.3732 5.73005 9.86218C5.68054 9.68946 5.61511 9.53 5.53914 9.38945C6.41572 9.77156 7.63382 9.814 8.98023 9.814Z" fill="#5E5E66"/>
<path d="M18 27.0928V23.071C17.9987 21.5778 17.5793 20.1143 16.7886 18.8438C15.998 17.5733 14.8671 16.5459 13.5222 15.876L12.3707 15.3022C12.1831 15.2076 11.9705 15.1733 11.7623 15.204C11.5542 15.2348 11.3609 15.3291 11.2092 15.4739C10.942 15.8043 10.6034 16.0709 10.2185 16.2542C9.83358 16.4374 9.4121 16.5325 8.98518 16.5325C8.55825 16.5325 8.13677 16.4374 7.75184 16.2542C7.36691 16.0709 7.02834 15.8043 6.76112 15.4739C6.61145 15.3258 6.4179 15.2292 6.20887 15.1983C5.99984 15.1675 5.78633 15.2039 5.59967 15.3022L4.44811 15.876C3.10879 16.5499 1.984 17.5791 1.19875 18.8493C0.413497 20.1195 -0.00145725 21.5809 3.84519e-06 23.071V27.0928C3.84519e-06 27.6365 0.21766 28.1579 0.605091 28.5424C0.992522 28.9269 1.51799 29.1429 2.0659 29.1429H15.939C16.4861 29.1416 17.0103 28.925 17.3967 28.5407C17.783 28.1563 18 27.6356 18 27.0928Z" fill="#5E5E66"/>
</svg>
