<svg width="29" height="28" viewBox="0 0 29 28" fill="none" xmlns="http://www.w3.org/2000/svg">
<path d="M24.3 8.37879H4.69999C4.44983 8.37879 4.21875 8.24737 4.09375 8.03409C3.96875 7.82081 3.96875 7.55798 4.09375 7.3447C4.21875 7.13142 4.44984 7 4.69999 7H24.3C24.5502 7 24.7812 7.13141 24.9062 7.3447C25.0312 7.55798 25.0312 7.82081 24.9062 8.03409C24.7812 8.24737 24.5502 8.37879 24.3 8.37879ZM20.1 14.5833C20.1 14.4005 20.0263 14.2251 19.895 14.0958C19.7638 13.9666 19.5856 13.8939 19.4 13.8939H4.69999C4.44983 13.8939 4.21875 14.0254 4.09375 14.2386C3.96875 14.4519 3.96875 14.7148 4.09375 14.928C4.21875 15.1413 4.44984 15.2727 4.69999 15.2727H19.4C19.5856 15.2727 19.7638 15.2001 19.895 15.0708C20.0263 14.9416 20.1 14.7661 20.1 14.5833ZM15.2 21.4773C15.2 21.2945 15.1262 21.119 14.995 20.9898C14.8638 20.8605 14.6856 20.7879 14.5 20.7879H4.69999C4.44983 20.7879 4.21875 20.9193 4.09375 21.1326C3.96875 21.3459 3.96875 21.6087 4.09375 21.822C4.21875 22.0352 4.44984 22.1667 4.69999 22.1667H14.5C14.6856 22.1667 14.8638 22.094 14.995 21.9648C15.1262 21.8355 15.2 21.6601 15.2 21.4773Z" fill="#71717A"/>
</svg>
