<svg width="40" height="40" viewBox="0 0 40 40" fill="none" xmlns="http://www.w3.org/2000/svg">
<g id="fire_svgrepo.com">
<path id="Vector" d="M5 21.8518C5 33.7037 13.8148 36.6667 18.2222 36.6667C20.479 36.6667 23.7468 36.072 26.6667 34.3495M31.2012 30C32.5035 27.9228 33.3333 25.2533 33.3333 21.8518C33.3333 14.3071 28.6088 8.91878 24.3372 5.82945C22.4063 4.43308 20 5.96667 20 8.34952V8.8889C20 11.292 18.9897 15.6784 16.1822 17.5028C14.7489 18.4343 13.2009 17.0402 13.0267 15.3397L12.8836 13.9433C12.7173 12.32 11.064 11.3345 9.7666 12.3242C8.64657 13.1786 7.50232 14.3414 6.61573 15.8333" stroke="white" stroke-width="2" stroke-linecap="round"/>
<path id="Vector_2" d="M13.3333 30.7408C13.3333 35.4815 17.4815 36.6667 19.5555 36.6667C21.3703 36.6667 25 35.4815 25 30.7408C25 28.9058 24.0178 27.667 23.0673 26.9522C22.404 26.4533 21.4713 26.9013 21.2432 27.6993C20.9458 28.7395 19.8713 29.3933 19.324 28.4598C18.8235 27.6063 18.8235 26.3262 18.8235 25.5557C18.8235 24.4947 17.7565 23.8078 16.8982 24.4315C15.1775 25.6818 13.3333 27.8025 13.3333 30.7408Z" stroke="white" stroke-width="2"/>
</g>
</svg>
