<svg width="36" height="37" viewBox="0 0 36 37" fill="none" xmlns="http://www.w3.org/2000/svg">
<circle cx="17.75" cy="18.3662" r="17.25" fill="black" stroke="#FFC700"/>
<path d="M13.126 24.6942V18.1436L11.0944 16.285L9.27271 15.2537V23.5382C9.27271 24.1778 9.79094 24.6942 10.4287 24.6942H13.126Z" fill="#FFC700"/>
<path d="M22.3738 24.6942H25.0711C25.7107 24.6942 26.2271 24.1758 26.2271 23.5381V15.2537L24.1637 16.435L22.3738 18.1435V24.6942Z" fill="#FFC700"/>
<path d="M13.126 18.1435L12.8496 15.584L13.126 13.1343L17.75 16.6022L22.3739 13.1343L22.6832 15.4517L22.3739 18.1435L17.75 21.6115L13.126 18.1435Z" fill="#FFC700"/>
<path d="M22.3738 13.1343V18.1436L26.2271 15.2536V13.7123C26.2271 12.2828 24.5952 11.4678 23.4528 12.3252L22.3738 13.1343Z" fill="#FFC700"/>
<path d="M9.27271 15.2537L11.0449 16.5829L13.126 18.1436V13.1344L12.047 12.3252C10.9026 11.4678 9.27271 12.2828 9.27271 13.7123V15.2536V15.2537Z" fill="#FFC700"/>
</svg>
