<svg width="16" height="16" viewBox="0 0 16 16" fill="none" xmlns="http://www.w3.org/2000/svg">
<path id="Vector" d="M14.0744 0.297852H10.5185C10.5367 0.403872 10.5453 0.511184 10.5442 0.618782C10.5442 1.4214 10.1159 2.16299 9.42093 2.56428C8.72593 2.96557 7.86943 2.96557 7.17442 2.56428C6.47942 2.16299 6.05117 1.4214 6.05117 0.618782C6.05002 0.511184 6.05862 0.403872 6.07681 0.297852H2.52095C2.01017 0.297852 1.52049 0.500723 1.15929 0.861771C0.798239 1.22296 0.595367 1.71266 0.595367 2.22343V13.7769C0.595367 14.2877 0.798239 14.7774 1.15929 15.1386C1.52048 15.4996 2.01017 15.7025 2.52095 15.7025H14.0744C14.5852 15.7025 15.0749 15.4996 15.4361 15.1386C15.7971 14.7774 16 14.2877 16 13.7769V2.22343C16 1.71266 15.7971 1.22297 15.4361 0.861771C15.0749 0.500723 14.5852 0.297852 14.0744 0.297852H14.0744ZM13.4325 9.92575H3.16279C2.98556 9.92575 2.84186 9.78205 2.84186 9.60482C2.84186 9.42759 2.98556 9.28389 3.16279 9.28389H13.4325C13.6098 9.28389 13.7535 9.42759 13.7535 9.60482C13.7535 9.78205 13.6098 9.92575 13.4325 9.92575ZM13.4325 7.35831H3.16279C2.98556 7.35831 2.84186 7.21461 2.84186 7.03738C2.84186 6.86015 2.98556 6.71645 3.16279 6.71645H13.4325C13.6098 6.71645 13.7535 6.86015 13.7535 7.03738C13.7535 7.21461 13.6098 7.35831 13.4325 7.35831ZM13.4325 4.79087H3.16279C2.98556 4.79087 2.84186 4.64717 2.84186 4.46994C2.84186 4.29271 2.98556 4.14901 3.16279 4.14901H13.4325C13.6098 4.14901 13.7535 4.29271 13.7535 4.46994C13.7535 4.64717 13.6098 4.79087 13.4325 4.79087Z" fill="#FFDD66"/>
</svg>
