<svg width="200" height="200" viewBox="0 0 200 200" fill="none" xmlns="http://www.w3.org/2000/svg">
<path d="M192.5 170.938L163.125 121.25C160.938 134.688 149.375 144.688 135.313 144.688C132.5 144.688 129.688 145.313 126.875 146.25L153.75 192.813C153.75 192.813 152.813 158.438 152.813 158.125C153.125 155.625 154.375 153.438 156.562 152.5C158.438 151.563 160.938 151.25 162.812 152.5C163.438 152.5 192.5 170.938 192.5 170.938Z" fill="black"/>
<path d="M36.875 120.312L7.5 171.25C7.5 171.25 36.5625 152.5 36.875 152.5C39.0625 151.562 41.25 151.562 43.125 152.5C45.3125 153.75 46.5625 155.937 46.875 158.125L45.9375 192.812L72.8125 145.938C70.3125 145 67.5 144.375 64.6875 144.375C50.3125 144.688 38.75 134.062 36.875 120.312Z" fill="black"/>
<path d="M157.5 116.563C157.5 108.75 160.312 101.875 165.625 96.5625C174.062 88.125 174.062 74.0625 165.625 65.625C160.625 60.3125 157.5 53.125 157.5 45.625C157.5 33.4375 147.812 23.75 135.625 23.75C127.812 23.75 121.25 20.625 115.625 15.625C101.25 3.12504 89.0625 11.25 84.6875 15.625C79.6875 20.625 72.1875 23.75 64.6875 23.75C52.5 23.75 42.8125 33.4375 42.8125 45.625C42.8125 53.4375 40 60.3125 34.6875 65.625C26.25 74.0625 26.25 88.125 34.6875 96.5625C39.6875 101.563 42.8125 109.063 42.8125 116.563C42.8125 128.75 52.5 138.438 64.6875 138.438C72.5 138.438 79.375 141.25 84.6875 146.563C88.75 150.625 101.562 157.813 115.625 146.563C121.25 141.875 128.125 138.438 135.625 138.438C147.812 138.438 157.5 128.75 157.5 116.563ZM100 140.625C67.1875 140.625 40.625 114.063 40.625 81.25C40.625 48.4375 67.1875 21.875 100 21.875C132.812 21.875 159.375 48.4375 159.375 81.25C159.375 114.063 132.812 140.625 100 140.625Z" fill="black"/>
<path d="M100 28.125C70.625 28.125 46.875 51.875 46.875 81.25C46.875 110.625 70.625 134.375 100 134.375C129.375 134.375 153.125 110.625 153.125 81.25C153.125 51.875 129.375 28.125 100 28.125ZM61.875 103.437C59.6875 104.375 58.125 103.125 57.8125 101.875C55.625 96.875 54.0625 92.1875 53.4375 87.8125C53.125 86.25 54.375 84.6875 56.25 84.375C58.125 84.0625 59.6875 85.3125 59.6875 87.1875C60.3125 90.9375 61.25 95 63.4375 99.375C64.0625 100.938 63.4375 102.812 61.875 103.437ZM100 103.75L78.4375 115.313L82.5 91.25L65.3125 74.0625L89.6875 70.3125L100.312 48.4375L110.938 70.3125L135.312 73.75L118.125 90.9375L122.187 115L100 103.75ZM134.063 108.75C132.813 107.812 132.5 105.625 133.438 104.375C136.875 99.6875 139.375 93.75 140.313 87.1875C140.625 85.625 142.188 84.375 143.75 84.6875C145.312 85 146.563 86.5625 146.563 88.125C145.625 95.9375 142.812 102.812 138.438 108.438C137.812 109.062 136.25 110.312 134.063 108.75Z" fill="black"/>
</svg>
