<svg width="40" height="40" viewBox="0 0 40 40" fill="none" xmlns="http://www.w3.org/2000/svg">
<path d="M36.6667 20.3398V22.8749C36.6667 29.3763 36.6667 32.6271 34.714 34.6468C32.7615 36.6666 29.6187 36.6666 23.3333 36.6666H16.6667C10.3813 36.6666 7.23858 36.6666 5.28595 34.6468C3.33333 32.6271 3.33333 29.3763 3.33333 22.8749V20.3398C3.33333 16.5257 3.33333 14.6187 4.19866 13.0378C5.064 11.4569 6.64491 10.4758 9.80671 8.51347L13.14 6.4447C16.4823 4.3704 18.1535 3.33325 20 3.33325C21.8465 3.33325 23.5177 4.3704 26.86 6.4447L30.1933 8.51345C33.3552 10.4758 34.936 11.4569 35.8013 13.0378" stroke="#FFC700" stroke-width="2" stroke-linecap="round"/>
<path d="M25 30H15" stroke="#FFC700" stroke-width="2" stroke-linecap="round"/>
</svg>
