<svg width="375" height="320" viewBox="0 0 375 320" fill="none" xmlns="http://www.w3.org/2000/svg">
<path d="M-43.3432 44.0613L-43.3395 44.0596C-6.61554 27.0344 42.5642 12.0088 112.973 3.39868L112.852 2.40606L112.974 3.39865C175.348 -4.23903 258.642 12.0567 317.036 43.7235L317.036 43.7236C412.719 95.5802 485.565 138.007 546.059 185.442C629.234 250.93 661.424 313.71 691.627 372.616C697.045 383.183 702.399 393.625 707.972 403.936C724.844 435.176 736.177 465.255 733.836 492.469C731.506 519.568 715.59 544.052 677.395 564.098C663.915 571.047 643.675 576.437 620.567 581.139C603.365 584.639 584.644 587.746 566.028 590.835C559.652 591.893 553.288 592.949 547.003 594.019L547.002 594.019C513.983 599.66 463.834 591.167 401.516 571.799L401.515 571.799C397.923 570.684 394.253 569.422 390.559 568.151C388.35 567.391 386.132 566.628 383.916 565.892C378.032 563.937 372.211 562.189 366.844 561.291C305.659 550.907 265.581 539.556 235.779 527.91C208.86 517.391 190.304 506.624 172.091 496.056C170.142 494.925 168.196 493.796 166.245 492.67C83.9478 445.14 37.9327 402.452 -2.45784 360.415L-2.45997 360.412C-83.8914 276.18 -121.027 199.954 -111.905 131.944L-111.898 131.894L-111.896 131.843C-111.36 114.833 -106.688 98.6293 -95.9516 83.8231C-85.2088 69.008 -68.3497 55.531 -43.3432 44.0613Z" fill="#FFDD66" stroke="#E4E4E7" stroke-width="2"/>
</svg>
