<svg width="100" height="75" viewBox="0 0 100 75" fill="none" xmlns="http://www.w3.org/2000/svg">
<path d="M99.8154 12.8982C99.7323 12.7657 99.622 12.6528 99.4919 12.5673C99.3619 12.4818 99.2151 12.4256 99.0617 12.4026L9.45897 0H9.30823C9.04486 0.000515896 8.79054 0.0972263 8.59204 0.272339C8.39355 0.447451 8.26425 0.689186 8.22792 0.953067L0 61.7714C0.00654896 61.8772 0.00654896 61.9833 0 62.0891H0H0.200987L0.427098 62.3941C0.596049 62.4361 0.760232 62.4957 0.917005 62.572L90.4443 75H90.5951C90.8585 74.9995 91.1128 74.9028 91.3113 74.7277C91.5098 74.5525 91.6391 74.3108 91.6754 74.0469L91.8261 73.437L91.9141 73.3734L99.9912 13.6479C100.025 13.3847 99.962 13.1182 99.8154 12.8982ZM3.40422 60.7294L39.0418 24.9958L58.7511 60.1576L63.7758 69.0529L3.40422 60.7294ZM66.5771 69.4722L61.1002 59.6874L74.1141 46.5351L88.6229 72.522L66.5771 69.4722ZM90.1303 70.5905L75.3703 44.2096C75.2809 44.057 75.161 43.9251 75.0182 43.8222C74.8754 43.7193 74.713 43.6479 74.5412 43.6123H74.4156C74.1173 43.6224 73.8323 43.7395 73.6116 43.9427L59.9571 57.8321L40.1975 22.6957C40.1185 22.539 40.0036 22.4036 39.8625 22.3008C39.7214 22.198 39.558 22.1307 39.386 22.1046C39.214 22.0785 39.0384 22.0943 38.8736 22.1507C38.7089 22.2071 38.5598 22.3025 38.4388 22.4288L2.63796 58.4548L10.2378 2.27465L97.6925 14.385L90.1303 70.5905Z" fill="#D4D4D8"/>
<path d="M63.1361 35.1996C63.8353 35.4209 64.564 35.5324 65.2967 35.53C67.0758 35.5381 68.7964 34.8874 70.1339 33.7005C71.4714 32.5137 72.3334 30.8728 72.5574 29.0873C72.8189 27.1319 72.3053 25.1513 71.1286 23.5777C69.9519 22.004 68.2076 20.9651 66.2765 20.6876C65.9352 20.639 65.5911 20.6135 65.2464 20.6113C63.6039 20.6075 62.0079 21.1633 60.7157 22.1892C59.4236 23.2151 58.5106 24.6513 58.1239 26.2662C58.0601 26.526 58.0097 26.789 57.9732 27.0541C57.7797 28.4595 57.9844 29.8916 58.5636 31.184C58.9973 32.1454 59.6299 33.0014 60.4188 33.6942C61.2076 34.3869 62.1342 34.9003 63.1361 35.1996ZM60.1087 27.3591C60.18 26.877 60.3152 26.4068 60.5107 25.9612C60.8952 25.0213 61.5497 24.2197 62.3895 23.6601C63.2293 23.1005 64.2158 22.8087 65.2213 22.8225C65.4681 22.8054 65.7157 22.8054 65.9625 22.8225C66.641 22.9139 67.2945 23.1418 67.8845 23.4929C68.4745 23.844 68.989 24.3111 69.3976 24.8666C69.8062 25.4221 70.1007 26.0548 70.2637 26.7273C70.4267 27.3999 70.4548 28.0986 70.3465 28.7823C70.1531 30.0376 69.5254 31.1827 68.5753 32.0135C67.6252 32.8444 66.4143 33.307 65.1585 33.3189C64.9368 33.3343 64.7144 33.3343 64.4927 33.3189C63.1413 33.099 61.9255 32.3612 61.0975 31.2586C60.2695 30.1559 59.8929 28.7732 60.0459 27.3972L60.1087 27.3591Z" fill="#D4D4D8"/>
</svg>
