<svg width="125" height="74" viewBox="0 0 125 74" fill="none" xmlns="http://www.w3.org/2000/svg">
<path d="M120.837 3.34959C120.746 2.43719 120.323 1.59055 119.649 0.972293C118.974 0.35404 118.096 0.00777216 117.182 0L116.845 0L49.1474 6.27051C48.1834 6.36413 47.2949 6.83503 46.6741 7.58131C46.0534 8.32759 45.7503 9.28922 45.8305 10.2581L46.337 15.9504L48.0848 16.1897L47.5287 10.1185C47.487 9.59892 47.6498 9.08359 47.982 8.68296C48.3143 8.28233 48.7897 8.02827 49.3063 7.97521L117.004 1.71467H117.182C117.675 1.71194 118.151 1.89302 118.518 2.22277C118.885 2.55252 119.117 3.00741 119.168 3.49912L123.28 48.8482C123.319 49.3646 123.156 49.876 122.826 50.2742C122.496 50.6724 122.025 50.9261 121.512 50.9815L79.0883 54.8296L78.85 56.5841L121.671 52.5965C122.635 52.5029 123.524 52.032 124.144 51.2857C124.765 50.5394 125.068 49.5778 124.988 48.6089L120.837 3.34959Z" fill="#D4D4D8"/>
<path d="M78.909 25.2816C78.8434 25.1777 78.7561 25.0892 78.6533 25.0221C78.5505 24.955 78.4345 24.9109 78.3132 24.8928L7.47779 15.1631H7.35862C7.15042 15.1635 6.94936 15.2394 6.79244 15.3767C6.63552 15.5141 6.5333 15.7037 6.50458 15.9108L0 63.6225C0.00517728 63.7055 0.00517728 63.7887 0 63.8717H0H0.158891L0.337643 64.1109C0.471207 64.1439 0.601002 64.1907 0.724938 64.2505L71.5008 74.0002H71.6199C71.8282 73.9998 72.0292 73.9239 72.1861 73.7866C72.343 73.6492 72.4453 73.4595 72.474 73.2525L72.5931 72.774L72.6627 72.7242L79.0481 25.8698C79.0744 25.6633 79.025 25.4542 78.909 25.2816ZM2.69121 62.805L30.8645 34.7721L46.4457 62.3564L50.418 69.3347L2.69121 62.805ZM52.6325 69.6637L48.3027 61.9875L58.5909 51.6696L70.0608 72.0563L52.6325 69.6637ZM71.2525 70.541L59.584 49.8453C59.5133 49.7256 59.4185 49.6221 59.3057 49.5414C59.1928 49.4607 59.0643 49.4046 58.9286 49.3767H58.8293C58.5935 49.3846 58.3681 49.4765 58.1937 49.6359L47.3991 60.5321L31.7781 32.9677C31.7157 32.8448 31.6249 32.7386 31.5133 32.6579C31.4017 32.5773 31.2726 32.5245 31.1366 32.5041C31.0007 32.4836 30.8618 32.496 30.7316 32.5402C30.6013 32.5845 30.4835 32.6593 30.3878 32.7584L2.08544 61.0206L8.09349 16.9475L77.2308 26.448L71.2525 70.541Z" fill="#D4D4D8"/>
<path d="M49.9119 42.7765C50.4647 42.9501 51.0408 43.0375 51.62 43.0357C53.0265 43.042 54.3867 42.5315 55.4441 41.6005C56.5015 40.6694 57.1829 39.3821 57.3599 37.9814C57.5667 36.4474 57.1606 34.8936 56.2304 33.6591C55.3002 32.4246 53.9213 31.6095 52.3946 31.3919C52.1248 31.3537 51.8527 31.3338 51.5803 31.332C50.2818 31.329 49.02 31.765 47.9985 32.5698C46.977 33.3747 46.2553 34.5013 45.9496 35.7683C45.8991 35.972 45.8593 36.1784 45.8304 36.3863C45.6775 37.4889 45.8393 38.6124 46.2972 39.6263C46.64 40.3805 47.1402 41.052 47.7638 41.5954C48.3874 42.1389 49.1199 42.5417 49.9119 42.7765ZM47.5186 36.6256C47.575 36.2474 47.6819 35.8785 47.8364 35.529C48.1404 34.7916 48.6579 34.1627 49.3218 33.7238C49.9857 33.2848 50.7655 33.0559 51.5604 33.0667C51.7555 33.0533 51.9513 33.0533 52.1463 33.0667C52.6827 33.1384 53.1994 33.3172 53.6658 33.5926C54.1322 33.868 54.5389 34.2345 54.862 34.6703C55.185 35.1061 55.4178 35.6024 55.5467 36.13C55.6755 36.6576 55.6978 37.2058 55.6121 37.7421C55.4593 38.7269 54.963 39.6252 54.2119 40.277C53.4608 40.9288 52.5036 41.2917 51.5108 41.3011C51.3355 41.3131 51.1597 41.3131 50.9844 41.3011C49.9161 41.1285 48.9549 40.5497 48.3003 39.6847C47.6458 38.8197 47.3481 37.735 47.469 36.6555L47.5186 36.6256Z" fill="#D4D4D8"/>
<path d="M85.0362 40.0446C85.1237 40.0839 85.2184 40.1043 85.3142 40.1045C85.4742 40.1067 85.6306 40.0578 85.7611 39.9649L98.1049 31.1323C98.2271 31.0449 98.3248 30.9273 98.3886 30.791C98.4525 30.6546 98.4802 30.5041 98.4692 30.3538C98.4582 30.2036 98.4089 30.0587 98.326 29.9332C98.243 29.8076 98.1293 29.7056 97.9957 29.637L84.4105 22.868C84.2843 22.8178 84.1491 22.794 84.0133 22.7983C83.8719 22.7897 83.731 22.8208 83.6062 22.888C83.4919 22.9859 83.4013 23.1085 83.3411 23.2466C83.2809 23.3848 83.2527 23.5348 83.2586 23.6855L84.49 39.297C84.4988 39.4614 84.5552 39.6197 84.6522 39.7525C84.7492 39.8852 84.8826 39.9868 85.0362 40.0446ZM96.0691 30.5342L85.9895 37.7617L84.9964 24.9914L96.0691 30.5342Z" fill="#D4D4D8"/>
</svg>
