<svg width="20" height="20" viewBox="0 0 20 20" fill="none" xmlns="http://www.w3.org/2000/svg">
<g id="Info">
<path id="Vector" d="M10 2.5C8.51664 2.5 7.06659 2.93987 5.83323 3.76398C4.59986 4.58809 3.63856 5.75943 3.07091 7.12987C2.50325 8.50032 2.35472 10.0083 2.64411 11.4632C2.9335 12.918 3.64781 14.2544 4.6967 15.3033C5.7456 16.3522 7.08197 17.0665 8.53683 17.3559C9.99168 17.6453 11.4997 17.4968 12.8701 16.9291C14.2406 16.3614 15.4119 15.4001 16.236 14.1668C17.0601 12.9334 17.5 11.4834 17.5 10C17.5 9.01508 17.306 8.03981 16.9291 7.12987C16.5522 6.21993 15.9997 5.39314 15.3033 4.6967C14.6069 4.00026 13.7801 3.44781 12.8701 3.0709C11.9602 2.69399 10.9849 2.5 10 2.5ZM10.75 13C10.75 13.1989 10.671 13.3897 10.5303 13.5303C10.3897 13.671 10.1989 13.75 10 13.75C9.80109 13.75 9.61032 13.671 9.46967 13.5303C9.32902 13.3897 9.25 13.1989 9.25 13V9.25C9.25 9.05109 9.32902 8.86032 9.46967 8.71967C9.61032 8.57902 9.80109 8.5 10 8.5C10.1989 8.5 10.3897 8.57902 10.5303 8.71967C10.671 8.86032 10.75 9.05109 10.75 9.25V13ZM10 7.75C9.85167 7.75 9.70666 7.70601 9.58332 7.6236C9.45999 7.54119 9.36386 7.42406 9.30709 7.28701C9.25033 7.14997 9.23547 6.99917 9.26441 6.85368C9.29335 6.7082 9.36478 6.57456 9.46967 6.46967C9.57456 6.36478 9.7082 6.29335 9.85368 6.26441C9.99917 6.23547 10.15 6.25032 10.287 6.30709C10.4241 6.36386 10.5412 6.45999 10.6236 6.58332C10.706 6.70666 10.75 6.85166 10.75 7C10.75 7.19891 10.671 7.38968 10.5303 7.53033C10.3897 7.67098 10.1989 7.75 10 7.75Z" fill="#15C872"/>
</g>
</svg>
