<svg width="21" height="26" viewBox="0 0 21 26" fill="none" xmlns="http://www.w3.org/2000/svg">
<path fill-rule="evenodd" clip-rule="evenodd" d="M5.48666 6.11799C5.60754 7.44419 5.91263 8.91207 6.11273 9.73976C5.66735 9.36172 3.80155 7.56159 3.89603 9.15334C4.01183 11.0939 5.67912 11.3865 5.68326 11.3874L5.96225 11.4446V11.7188C5.96225 11.7246 5.92344 13.7285 7.6674 14.6471C8.5397 15.1069 9.47976 15.3371 10.4192 15.3371C11.3583 15.3371 12.2977 15.1069 13.17 14.6471C14.9143 13.7285 14.8755 11.7246 14.8755 11.7188V11.4446L15.1538 11.3874C15.1586 11.3865 16.8259 11.0939 16.9417 9.15334C17.0336 7.60155 15.2426 9.29287 14.7819 9.66999C14.9359 8.89548 15.1984 7.56098 15.3234 6.31316C15.2365 6.02486 15.1277 5.79036 14.9935 5.67049C14.4253 5.1646 12.6165 6.37862 11.7302 5.40095C10.8439 4.42298 10.737 4.25486 9.63755 4.38948C8.53843 4.52471 9.6016 5.73811 7.97057 5.50207C6.40572 5.27617 5.87063 5.47133 5.5242 6.05191L5.48666 6.11799ZM4.80301 7.89261C4.65381 7.53947 4.54087 7.0723 4.60132 6.51354C4.74288 5.19872 3.64344 4.28805 5.06228 2.70368C6.48111 1.11932 6.05578 0.579923 7.43899 0.545807C8.82156 0.512307 10.0276 -0.432168 11.1623 0.24215C12.2977 0.916159 13.0781 -0.0608937 13.8931 1.38886C14.7094 2.8383 15.4541 1.86094 15.8442 3.24308C16.2342 4.62552 16.7664 4.76044 16.3764 5.90684C16.1499 6.57225 15.9472 7.41929 15.8171 8.01278C16.6143 7.54131 17.7609 7.19124 17.6422 9.18991C17.527 11.1293 16.1559 11.7848 15.5664 11.9782C15.5117 12.6294 15.2038 14.3466 13.5047 15.2419C13.4076 15.2929 13.3103 15.3411 13.2117 15.3872C14.0315 15.5793 15.1382 15.3464 16.169 16.0849C17.5305 17.0617 17.3985 18.7173 17.3985 18.7173C17.3985 18.7173 19.3763 18.4625 20.3424 20.33C21.3092 22.1977 20.5623 24.5323 20.5623 24.5323C8.3116 25.5527 12.5261 25.5527 0.275458 24.5323C0.275458 24.5323 -0.471498 22.1977 0.494646 20.33C1.46143 18.4625 3.43921 18.7173 3.43921 18.7173C3.43921 18.7173 3.30719 17.0617 4.66876 16.0849C5.69948 15.3464 6.8056 15.5793 7.62604 15.3872C7.52743 15.3411 7.42976 15.2929 7.33242 15.2419C5.63395 14.3466 5.326 12.6294 5.27129 11.9782C4.6818 11.7848 3.31068 11.1293 3.19552 9.18991C3.08704 7.36735 4.03155 7.49797 4.80301 7.89261ZM12.4711 15.6829C12.4192 16.4467 12.3461 17.657 12.3461 18.1226C12.3461 18.8443 12.9616 18.2926 13.9278 18.8443C16.9582 20.5743 3.87981 20.5743 6.90995 18.8443C7.87609 18.2926 8.49166 18.8443 8.49166 18.1226C8.49166 17.657 8.41849 16.447 8.36664 15.6829C9.03724 15.9054 9.72821 16.0164 10.4192 16.0164C11.1098 16.0164 11.8008 15.9051 12.4711 15.6829Z" fill="#5E5E66"/>
</svg>
