<svg width="25" height="25" viewBox="0 0 25 25" fill="none" xmlns="http://www.w3.org/2000/svg">
<path d="M21.875 0H16.1042C16.1337 0.17206 16.1477 0.346214 16.1458 0.520833C16.1458 1.82339 15.4508 3.0269 14.3229 3.67815C13.195 4.3294 11.805 4.3294 10.6771 3.67815C9.54915 3.0269 8.85415 1.82339 8.85415 0.520833C8.85229 0.346214 8.86624 0.17206 8.89577 0H3.125C2.29607 0 1.50137 0.329238 0.915179 0.915179C0.329238 1.50135 0 2.29607 0 3.125V21.875C0 22.7039 0.329238 23.4986 0.915179 24.0848C1.50135 24.6708 2.29607 25 3.125 25H21.875C22.7039 25 23.4986 24.6708 24.0848 24.0848C24.6708 23.4986 25 22.7039 25 21.875V3.125C25 2.29607 24.6708 1.50137 24.0848 0.915179C23.4986 0.329238 22.7039 0 21.875 0H21.875ZM20.8333 15.625H4.16664C3.87902 15.625 3.64581 15.3918 3.64581 15.1042C3.64581 14.8165 3.87902 14.5833 4.16664 14.5833H20.8333C21.1209 14.5833 21.3541 14.8165 21.3541 15.1042C21.3541 15.3918 21.1209 15.625 20.8333 15.625ZM20.8333 11.4583H4.16664C3.87902 11.4583 3.64581 11.2251 3.64581 10.9375C3.64581 10.6499 3.87902 10.4167 4.16664 10.4167H20.8333C21.1209 10.4167 21.3541 10.6499 21.3541 10.9375C21.3541 11.2251 21.1209 11.4583 20.8333 11.4583ZM20.8333 7.29167H4.16664C3.87902 7.29167 3.64581 7.05845 3.64581 6.77083C3.64581 6.48321 3.87902 6.25 4.16664 6.25H20.8333C21.1209 6.25 21.3541 6.48321 21.3541 6.77083C21.3541 7.05845 21.1209 7.29167 20.8333 7.29167Z" fill="#FFB800"/>
</svg>
