<svg width="42" height="43" viewBox="0 0 42 43" fill="none" xmlns="http://www.w3.org/2000/svg">
<g filter="url(#filter0_dd_538_5592)">
<rect x="2" y="2" width="38" height="38" rx="19" fill="#27272A"/>
<path d="M21 29.75C25.8325 29.75 29.75 25.8325 29.75 21C29.75 16.1675 25.8325 12.25 21 12.25C16.1675 12.25 12.25 16.1675 12.25 21C12.25 25.8325 16.1675 29.75 21 29.75Z" fill="url(#paint0_linear_538_5592)"/>
<path fill-rule="evenodd" clip-rule="evenodd" d="M18.4801 16.6076C18.1492 16.6128 17.8339 16.7491 17.6033 16.9865C17.3728 17.2238 17.2458 17.5429 17.2501 17.8738V24.1238C17.2501 24.4554 17.3818 24.7733 17.6162 25.0077C17.8507 25.2421 18.1686 25.3738 18.5001 25.3738C18.8316 25.3738 19.1496 25.2421 19.384 25.0077C19.6184 24.7733 19.7501 24.4554 19.7501 24.1238V17.8738C19.7523 17.7066 19.721 17.5406 19.6579 17.3858C19.5948 17.2309 19.5013 17.0903 19.3828 16.9722C19.2644 16.8541 19.1235 16.761 18.9684 16.6984C18.8133 16.6357 18.6473 16.6049 18.4801 16.6076Z" fill="url(#paint1_linear_538_5592)"/>
<path fill-rule="evenodd" clip-rule="evenodd" d="M23.4801 16.6076C23.1492 16.6128 22.8339 16.7491 22.6033 16.9865C22.3728 17.2238 22.2458 17.5429 22.2501 17.8738V24.1238C22.2501 24.4554 22.3818 24.7733 22.6162 25.0077C22.8507 25.2421 23.1686 25.3738 23.5001 25.3738C23.8316 25.3738 24.1496 25.2421 24.384 25.0077C24.6184 24.7733 24.7501 24.4554 24.7501 24.1238V17.8738C24.7523 17.7066 24.721 17.5406 24.6579 17.3858C24.5948 17.2309 24.5013 17.0903 24.3828 16.9722C24.2644 16.8541 24.1235 16.761 23.9684 16.6984C23.8133 16.6357 23.6473 16.6049 23.4801 16.6076Z" fill="url(#paint2_linear_538_5592)"/>
</g>
<defs>
<filter id="filter0_dd_538_5592" x="0.4625" y="0.078125" width="41.4594" height="42.1641" filterUnits="userSpaceOnUse" color-interpolation-filters="sRGB">
<feFlood flood-opacity="0" result="BackgroundImageFix"/>
<feColorMatrix in="SourceAlpha" type="matrix" values="0 0 0 0 0 0 0 0 0 0 0 0 0 0 0 0 0 0 127 0" result="hardAlpha"/>
<feOffset dx="0.640625" dy="0.960938"/>
<feGaussianBlur stdDeviation="0.640625"/>
<feColorMatrix type="matrix" values="0 0 0 0 0 0 0 0 0 0 0 0 0 0 0 0 0 0 0.6 0"/>
<feBlend mode="normal" in2="BackgroundImageFix" result="effect1_dropShadow_538_5592"/>
<feColorMatrix in="SourceAlpha" type="matrix" values="0 0 0 0 0 0 0 0 0 0 0 0 0 0 0 0 0 0 127 0" result="hardAlpha"/>
<feOffset dx="-0.25625" dy="-0.640625"/>
<feGaussianBlur stdDeviation="0.640625"/>
<feColorMatrix type="matrix" values="0 0 0 0 0 0 0 0 0 0 0 0 0 0 0 0 0 0 0.6 0"/>
<feBlend mode="normal" in2="effect1_dropShadow_538_5592" result="effect2_dropShadow_538_5592"/>
<feBlend mode="normal" in="SourceGraphic" in2="effect2_dropShadow_538_5592" result="shape"/>
</filter>
<linearGradient id="paint0_linear_538_5592" x1="12.25" y1="21" x2="29.75" y2="21" gradientUnits="userSpaceOnUse">
<stop stop-color="#FFB800"/>
<stop offset="1" stop-color="#FFB800"/>
</linearGradient>
<linearGradient id="paint1_linear_538_5592" x1="17.2501" y1="21.0001" x2="19.7501" y2="21.0001" gradientUnits="userSpaceOnUse">
<stop stop-color="#090A0A"/>
<stop offset="1" stop-color="#090A0A"/>
</linearGradient>
<linearGradient id="paint2_linear_538_5592" x1="22.2501" y1="21.0001" x2="24.7501" y2="21.0001" gradientUnits="userSpaceOnUse">
<stop stop-color="#090A0A"/>
<stop offset="1" stop-color="#090A0A"/>
</linearGradient>
</defs>
</svg>
