<svg width="38" height="38" viewBox="0 0 38 38" fill="none" xmlns="http://www.w3.org/2000/svg">
<rect width="38" height="38" rx="19" fill="#27272A"/>
<path d="M19 27.75C23.8325 27.75 27.75 23.8325 27.75 19C27.75 14.1675 23.8325 10.25 19 10.25C14.1675 10.25 10.25 14.1675 10.25 19C10.25 23.8325 14.1675 27.75 19 27.75Z" fill="url(#paint0_linear_538_5592)"/>
<path fill-rule="evenodd" clip-rule="evenodd" d="M16.4801 14.6076C16.1492 14.6128 15.8339 14.7491 15.6033 14.9865C15.3728 15.2238 15.2458 15.5429 15.2501 15.8738V22.1238C15.2501 22.4554 15.3818 22.7733 15.6162 23.0077C15.8507 23.2421 16.1686 23.3738 16.5001 23.3738C16.8316 23.3738 17.1496 23.2421 17.384 23.0077C17.6184 22.7733 17.7501 22.4554 17.7501 22.1238V15.8738C17.7523 15.7066 17.721 15.5406 17.6579 15.3858C17.5948 15.2309 17.5013 15.0903 17.3828 14.9722C17.2644 14.8541 17.1235 14.761 16.9684 14.6984C16.8133 14.6357 16.6473 14.6049 16.4801 14.6076Z" fill="url(#paint1_linear_538_5592)"/>
<path fill-rule="evenodd" clip-rule="evenodd" d="M21.4801 14.6076C21.1492 14.6128 20.8339 14.7491 20.6033 14.9865C20.3728 15.2238 20.2458 15.5429 20.2501 15.8738V22.1238C20.2501 22.4554 20.3818 22.7733 20.6162 23.0077C20.8507 23.2421 21.1686 23.3738 21.5001 23.3738C21.8316 23.3738 22.1496 23.2421 22.384 23.0077C22.6184 22.7733 22.7501 22.4554 22.7501 22.1238V15.8738C22.7523 15.7066 22.721 15.5406 22.6579 15.3858C22.5948 15.2309 22.5013 15.0903 22.3828 14.9722C22.2644 14.8541 22.1235 14.761 21.9684 14.6984C21.8133 14.6357 21.6473 14.6049 21.4801 14.6076Z" fill="url(#paint2_linear_538_5592)"/>
<defs>
<linearGradient id="paint0_linear_538_5592" x1="10.25" y1="19" x2="27.75" y2="19" gradientUnits="userSpaceOnUse">
<stop stop-color="#FFB800"/>
<stop offset="1" stop-color="#FFB800"/>
</linearGradient>
<linearGradient id="paint1_linear_538_5592" x1="15.2501" y1="19.0001" x2="17.7501" y2="19.0001" gradientUnits="userSpaceOnUse">
<stop stop-color="#090A0A"/>
<stop offset="1" stop-color="#090A0A"/>
</linearGradient>
<linearGradient id="paint2_linear_538_5592" x1="20.2501" y1="19.0001" x2="22.7501" y2="19.0001" gradientUnits="userSpaceOnUse">
<stop stop-color="#090A0A"/>
<stop offset="1" stop-color="#090A0A"/>
</linearGradient>
</defs>
</svg>
