<svg width="32" height="32" viewBox="0 0 32 32" fill="none" xmlns="http://www.w3.org/2000/svg">
<path d="M20.6689 5.25792C21.4741 4.4526 22.5662 4.00011 23.705 4C24.8437 3.99989 25.9359 4.45216 26.7412 5.25732C27.5466 6.06248 27.9991 7.15458 27.9992 8.29337C27.9993 9.43215 27.547 10.5243 26.7418 11.3297L25.6715 12.4L19.5998 6.32828L20.6689 5.25792ZM18.3278 7.60022L6.32833 19.5985C5.84071 20.0863 5.49801 20.6998 5.33837 21.3708L4.02443 26.8918C3.98885 27.0414 3.99218 27.1976 4.03411 27.3455C4.07604 27.4934 4.15517 27.6281 4.26394 27.7368C4.37272 27.8454 4.50752 27.9244 4.65548 27.9662C4.80345 28.0079 4.95964 28.0111 5.10918 27.9753L10.6301 26.6614C11.3013 26.5015 11.9149 26.1584 12.4025 25.6702L24.3995 13.6744L18.3266 7.60022H18.3278Z" fill="#FFB800"/>
</svg>
