<svg width="42" height="43" viewBox="0 0 42 43" fill="none" xmlns="http://www.w3.org/2000/svg">
<g filter="url(#filter0_dd_546_5723)">
<rect x="2" y="2" width="38" height="38" rx="19" fill="#27272A"/>
<path d="M21 29.75C25.8325 29.75 29.75 25.8325 29.75 21C29.75 16.1675 25.8325 12.25 21 12.25C16.1675 12.25 12.25 16.1675 12.25 21C12.25 25.8325 16.1675 29.75 21 29.75Z" fill="url(#paint0_linear_546_5723)"/>
<path d="M25.5956 21.743L19.2329 25.6806C18.693 26.0144 18 25.6102 18 24.9372V17.0621C18 16.3902 18.692 15.9849 19.2329 16.3198L25.5956 20.2574C25.7185 20.3321 25.8206 20.4402 25.8916 20.5707C25.9626 20.7012 26 20.8493 26 21.0002C26 21.151 25.9626 21.2992 25.8916 21.4297C25.8206 21.5601 25.7185 21.6682 25.5956 21.743V21.743Z" fill="black"/>
</g>
<defs>
<filter id="filter0_dd_546_5723" x="0.4625" y="0.078125" width="41.4594" height="42.1641" filterUnits="userSpaceOnUse" color-interpolation-filters="sRGB">
<feFlood flood-opacity="0" result="BackgroundImageFix"/>
<feColorMatrix in="SourceAlpha" type="matrix" values="0 0 0 0 0 0 0 0 0 0 0 0 0 0 0 0 0 0 127 0" result="hardAlpha"/>
<feOffset dx="0.640625" dy="0.960938"/>
<feGaussianBlur stdDeviation="0.640625"/>
<feColorMatrix type="matrix" values="0 0 0 0 0 0 0 0 0 0 0 0 0 0 0 0 0 0 0.6 0"/>
<feBlend mode="normal" in2="BackgroundImageFix" result="effect1_dropShadow_546_5723"/>
<feColorMatrix in="SourceAlpha" type="matrix" values="0 0 0 0 0 0 0 0 0 0 0 0 0 0 0 0 0 0 127 0" result="hardAlpha"/>
<feOffset dx="-0.25625" dy="-0.640625"/>
<feGaussianBlur stdDeviation="0.640625"/>
<feColorMatrix type="matrix" values="0 0 0 0 0 0 0 0 0 0 0 0 0 0 0 0 0 0 0.6 0"/>
<feBlend mode="normal" in2="effect1_dropShadow_546_5723" result="effect2_dropShadow_546_5723"/>
<feBlend mode="normal" in="SourceGraphic" in2="effect2_dropShadow_546_5723" result="shape"/>
</filter>
<linearGradient id="paint0_linear_546_5723" x1="12.25" y1="21" x2="29.75" y2="21" gradientUnits="userSpaceOnUse">
<stop stop-color="#FFB800"/>
<stop offset="1" stop-color="#FFB800"/>
</linearGradient>
</defs>
</svg>
