<svg width="35" height="31" viewBox="0 0 35 31" fill="none" xmlns="http://www.w3.org/2000/svg">
<g filter="url(#filter0_dd_564_6008)">
<path fill-rule="evenodd" clip-rule="evenodd" d="M6.66622 7.09771C7.84598 7.07765 8.7971 5.94423 8.7971 4.54899C8.7971 3.14122 7.82882 2 6.63439 2C5.43996 2 4.47168 3.14122 4.47168 4.54899C4.47168 5.94423 5.42281 7.07765 6.60257 7.09771H4.31719C2.61097 7.09771 2 8.66294 2 10.5935V16.711L3.54479 18.4589L5.08959 28.9462H8.17918L9.72397 18.4589L11.2688 16.711V10.5935C11.2688 8.66294 10.6578 7.09771 8.95158 7.09771H6.66622ZM31.0427 4.54899C31.0427 5.94423 30.0916 7.07765 28.9118 7.09771H31.1967C32.9029 7.09771 33.5139 8.66294 33.5139 10.5935V16.711L31.9691 18.4589L30.4243 28.9462H27.3347L25.7899 18.4589L24.2451 16.711V10.5935C24.2451 8.66294 24.8561 7.09771 26.5623 7.09771H28.8482C27.6684 7.07765 26.7173 5.94423 26.7173 4.54899C26.7173 3.14122 27.6856 2 28.88 2C30.0744 2 31.0427 3.14122 31.0427 4.54899ZM15.0555 15.1082L12.9488 13.0015C12.8195 12.8723 12.8195 12.6627 12.9488 12.5334L15.0555 10.4267C15.1847 10.2975 15.3943 10.2975 15.5236 10.4267C15.6529 10.556 15.6529 10.7656 15.5236 10.8949L13.9821 12.4364H22.4517V13.0985H13.9821L15.5236 14.64C15.6529 14.7693 15.6529 14.9789 15.5236 15.1082C15.3943 15.2375 15.1847 15.2375 15.0555 15.1082ZM22.6859 20.876L20.5793 22.9826C20.45 23.1119 20.2404 23.1119 20.1112 22.9826C19.9819 22.8534 19.9819 22.6438 20.1112 22.5145L21.6527 20.9729H13.1831V20.3109H21.6527L20.1112 18.7693C19.9819 18.6401 19.9819 18.4305 20.1112 18.3012C20.2404 18.1719 20.45 18.1719 20.5793 18.3012L22.6859 20.4078C22.8152 20.5371 22.8152 20.7467 22.6859 20.876Z" fill="#FFB800"/>
</g>
<defs>
<filter id="filter0_dd_564_6008" x="0.919524" y="0.649405" width="33.9447" height="29.8726" filterUnits="userSpaceOnUse" color-interpolation-filters="sRGB">
<feFlood flood-opacity="0" result="BackgroundImageFix"/>
<feColorMatrix in="SourceAlpha" type="matrix" values="0 0 0 0 0 0 0 0 0 0 0 0 0 0 0 0 0 0 127 0" result="hardAlpha"/>
<feOffset dx="0.450198" dy="0.675297"/>
<feGaussianBlur stdDeviation="0.450198"/>
<feColorMatrix type="matrix" values="0 0 0 0 0 0 0 0 0 0 0 0 0 0 0 0 0 0 0.6 0"/>
<feBlend mode="normal" in2="BackgroundImageFix" result="effect1_dropShadow_564_6008"/>
<feColorMatrix in="SourceAlpha" type="matrix" values="0 0 0 0 0 0 0 0 0 0 0 0 0 0 0 0 0 0 127 0" result="hardAlpha"/>
<feOffset dx="-0.180079" dy="-0.450198"/>
<feGaussianBlur stdDeviation="0.450198"/>
<feColorMatrix type="matrix" values="0 0 0 0 0 0 0 0 0 0 0 0 0 0 0 0 0 0 0.6 0"/>
<feBlend mode="normal" in2="effect1_dropShadow_564_6008" result="effect2_dropShadow_564_6008"/>
<feBlend mode="normal" in="SourceGraphic" in2="effect2_dropShadow_564_6008" result="shape"/>
</filter>
</defs>
</svg>
