<svg width="30" height="33" viewBox="0 0 30 33" fill="none" xmlns="http://www.w3.org/2000/svg">
<g filter="url(#filter0_dd_564_6006)">
<path d="M16.25 4.44409C15.8581 4.39065 15.4663 4.39065 15.0625 4.39065C14.6588 4.39065 14.2669 4.39065 13.875 4.44409C10.5274 4.74968 7.42654 6.33403 5.2173 8.86758C3.00807 11.4011 1.86059 14.6889 2.01354 18.0469C2.16649 21.4049 3.60811 24.5747 6.03852 26.8969C8.46892 29.2191 11.701 30.515 15.0625 30.515C18.424 30.515 21.6561 29.2191 24.0865 26.8969C26.5169 24.5747 27.9585 21.4049 28.1115 18.0469C28.2644 14.6889 27.117 11.4011 24.9077 8.86758C22.6985 6.33403 19.5976 4.74968 16.25 4.44409ZM15.0625 28.1406C12.9487 28.1406 10.8824 27.5138 9.12485 26.3395C7.3673 25.1651 5.99746 23.496 5.18855 21.5431C4.37964 19.5902 4.16799 17.4413 4.58037 15.3681C4.99275 13.2949 6.01063 11.3906 7.50531 9.89595C8.99998 8.40127 10.9043 7.38339 12.9775 6.97101C15.0507 6.55863 17.1996 6.77028 19.1524 7.57919C21.1053 8.3881 22.7745 9.75794 23.9488 11.5155C25.1232 13.273 25.75 15.3394 25.75 17.4531C25.75 20.2877 24.624 23.0061 22.6197 25.0104C20.6154 27.0146 17.897 28.1406 15.0625 28.1406ZM26.2013 7.95315C26.0413 7.95254 25.8831 7.91962 25.7362 7.85636C25.5893 7.7931 25.4566 7.70081 25.3463 7.58502C23.9931 6.16973 22.3617 5.04979 20.5547 4.29565C20.4066 4.23861 20.2714 4.15245 20.1572 4.04227C20.0429 3.9321 19.9519 3.80014 19.8896 3.65419C19.8272 3.50825 19.7947 3.35128 19.794 3.19256C19.7933 3.03385 19.8245 2.87661 19.8856 2.73014C19.9467 2.58366 20.0366 2.45093 20.1499 2.33979C20.2632 2.22864 20.3976 2.14133 20.5453 2.08303C20.6929 2.02472 20.8507 1.9966 21.0094 2.00033C21.168 2.00405 21.3244 2.03955 21.4691 2.10471C23.5783 2.9834 25.4826 4.28936 27.0622 5.94034C27.2247 6.10841 27.3339 6.32069 27.3763 6.55058C27.4186 6.78047 27.3921 7.01775 27.3002 7.23267C27.2083 7.4476 27.055 7.63061 26.8595 7.75877C26.664 7.88694 26.435 7.95455 26.2013 7.95315ZM3.92376 7.95315C3.6917 7.95227 3.46498 7.88341 3.27162 7.75508C3.07827 7.62676 2.92675 7.44459 2.83579 7.2311C2.74484 7.0176 2.71843 6.78213 2.75983 6.55379C2.80123 6.32545 2.90864 6.11424 3.06876 5.94628C4.64833 4.2953 6.5527 2.98933 8.66189 2.11065C8.80661 2.04548 8.96292 2.00999 9.1216 2.00626C9.28027 2.00254 9.43808 2.03066 9.58569 2.08897C9.73331 2.14727 9.86775 2.23458 9.98105 2.34572C10.0943 2.45687 10.1842 2.5896 10.2453 2.73607C10.3065 2.88255 10.3376 3.03979 10.3369 3.1985C10.3363 3.35721 10.3038 3.51418 10.2414 3.66013C10.179 3.80607 10.088 3.93803 9.97379 4.04821C9.85954 4.15839 9.72437 4.24454 9.57626 4.30159C7.76924 5.05572 6.13784 6.17567 4.7847 7.59096C4.67313 7.70639 4.53931 7.798 4.39134 7.86025C4.24336 7.92251 4.0843 7.95411 3.92376 7.95315Z" fill="#FFB800"/>
</g>
<g filter="url(#filter1_dd_564_6006)">
<path d="M18.9515 21.389L15.0624 17.5M15.0624 17.5L11.1733 13.6109M15.0624 17.5L18.9515 13.611M15.0624 17.5L11.1733 21.3891" stroke="#FFB800" stroke-width="2.40601" stroke-linecap="round"/>
</g>
<defs>
<filter id="filter0_dd_564_6006" x="0.8" y="0.5" width="28.825" height="31.7649" filterUnits="userSpaceOnUse" color-interpolation-filters="sRGB">
<feFlood flood-opacity="0" result="BackgroundImageFix"/>
<feColorMatrix in="SourceAlpha" type="matrix" values="0 0 0 0 0 0 0 0 0 0 0 0 0 0 0 0 0 0 127 0" result="hardAlpha"/>
<feOffset dx="0.5" dy="0.75"/>
<feGaussianBlur stdDeviation="0.5"/>
<feColorMatrix type="matrix" values="0 0 0 0 0 0 0 0 0 0 0 0 0 0 0 0 0 0 0.6 0"/>
<feBlend mode="normal" in2="BackgroundImageFix" result="effect1_dropShadow_564_6006"/>
<feColorMatrix in="SourceAlpha" type="matrix" values="0 0 0 0 0 0 0 0 0 0 0 0 0 0 0 0 0 0 127 0" result="hardAlpha"/>
<feOffset dx="-0.2" dy="-0.5"/>
<feGaussianBlur stdDeviation="0.5"/>
<feColorMatrix type="matrix" values="0 0 0 0 0 0 0 0 0 0 0 0 0 0 0 0 0 0 0.6 0"/>
<feBlend mode="normal" in2="effect1_dropShadow_564_6006" result="effect2_dropShadow_564_6006"/>
<feBlend mode="normal" in="SourceGraphic" in2="effect2_dropShadow_564_6006" result="shape"/>
</filter>
<filter id="filter1_dd_564_6006" x="8.77021" y="10.908" width="12.8841" height="13.4341" filterUnits="userSpaceOnUse" color-interpolation-filters="sRGB">
<feFlood flood-opacity="0" result="BackgroundImageFix"/>
<feColorMatrix in="SourceAlpha" type="matrix" values="0 0 0 0 0 0 0 0 0 0 0 0 0 0 0 0 0 0 127 0" result="hardAlpha"/>
<feOffset dx="0.5" dy="0.75"/>
<feGaussianBlur stdDeviation="0.5"/>
<feColorMatrix type="matrix" values="0 0 0 0 0 0 0 0 0 0 0 0 0 0 0 0 0 0 0.6 0"/>
<feBlend mode="normal" in2="BackgroundImageFix" result="effect1_dropShadow_564_6006"/>
<feColorMatrix in="SourceAlpha" type="matrix" values="0 0 0 0 0 0 0 0 0 0 0 0 0 0 0 0 0 0 127 0" result="hardAlpha"/>
<feOffset dx="-0.2" dy="-0.5"/>
<feGaussianBlur stdDeviation="0.5"/>
<feColorMatrix type="matrix" values="0 0 0 0 0 0 0 0 0 0 0 0 0 0 0 0 0 0 0.6 0"/>
<feBlend mode="normal" in2="effect1_dropShadow_564_6006" result="effect2_dropShadow_564_6006"/>
<feBlend mode="normal" in="SourceGraphic" in2="effect2_dropShadow_564_6006" result="shape"/>
</filter>
</defs>
</svg>
