<svg width="38" height="38" viewBox="0 0 38 38" fill="none" xmlns="http://www.w3.org/2000/svg">
<rect width="38" height="38" rx="19" fill="#27272A"/>
<path d="M15.25 19.5174V20.4287C15.25 20.8243 14.7719 21.0218 14.4925 20.7424L10.25 16.4999L14.4925 12.2574C14.7719 11.9781 15.25 12.1762 15.25 12.5712V13.4824L12.2325 16.4999L15.25 19.5174Z" fill="black"/>
<path d="M27.7369 20.4893C27.9569 23.7643 25.3544 26.4999 22.125 26.4999H20.25C19.5594 26.4999 19 25.9406 19 25.2499C19 24.5593 19.5594 23.9999 20.25 23.9999H22.125C23.9512 23.9999 25.4169 22.4249 25.235 20.5624C25.0762 18.9393 23.6169 17.7499 21.9856 17.7499H19V20.4287C19 20.8243 18.5219 21.0218 18.2425 20.7424L14 16.4999L18.2425 12.2574C18.5219 11.9781 19 12.1762 19 12.5712V15.2499H21.9262C24.9194 15.2499 27.5369 17.5031 27.7369 20.4893Z" fill="#FFB800"/>
</svg>
