<svg width="38" height="38" viewBox="0 0 38 38" fill="none" xmlns="http://www.w3.org/2000/svg">
<rect width="38" height="38" rx="19" fill="#27272A"/>
<g clip-path="url(#clip0_993_6363)">
<path d="M11.5002 19C11.5002 17.8397 11.9611 16.7269 12.7816 15.9064C13.6021 15.0859 14.7149 14.625 15.8752 14.625H21.1002L20.1502 14.8687L19.3627 15.6562C19.2465 15.7724 19.1544 15.9103 19.0916 16.062C19.0287 16.2137 18.9964 16.3764 18.9964 16.5406C18.9964 16.7049 19.0287 16.8675 19.0916 17.0192C19.1544 17.171 19.2465 17.3088 19.3627 17.425C19.4788 17.5411 19.6167 17.6333 19.7684 17.6961C19.9202 17.759 20.0828 17.7913 20.2471 17.7913C20.4113 17.7913 20.5739 17.759 20.7257 17.6961C20.8774 17.6333 21.0153 17.5411 21.1314 17.425L24.2564 14.3C24.3726 14.1839 24.4648 14.046 24.5278 13.8943C24.5907 13.7425 24.623 13.5799 24.623 13.4156C24.623 13.2513 24.5907 13.0887 24.5278 12.9369C24.4648 12.7852 24.3726 12.6473 24.2564 12.5312L21.1314 9.40624C20.8969 9.17169 20.5788 9.03992 20.2471 9.03992C19.9153 9.03992 19.5972 9.17169 19.3627 9.40624C19.1281 9.64079 18.9964 9.95891 18.9964 10.2906C18.9964 10.6223 19.1281 10.9404 19.3627 11.175L20.0939 11.9062L21.0627 12.125H15.8752C14.5497 12.125 13.2524 12.5081 12.1396 13.2283C11.0268 13.9485 10.1459 14.975 9.60305 16.1843C9.06017 17.3935 8.87844 18.7339 9.07975 20.0441C9.28105 21.3542 9.85681 22.5782 10.7377 23.5687C10.9581 23.8174 11.2683 23.9683 11.6 23.9882C11.9318 24.0081 12.2578 23.8954 12.5064 23.675C12.7551 23.4545 12.9059 23.1443 12.9259 22.8126C12.9458 22.4809 12.8331 22.1549 12.6127 21.9062C11.8982 21.1066 11.5023 20.0723 11.5002 19Z" fill="#FFB800"/>
<path d="M27.2376 14.4C27.0155 14.1514 26.7037 14.0012 26.3708 13.9824C26.0379 13.9636 25.7112 14.0779 25.4626 14.3C25.214 14.5221 25.0637 14.8339 25.045 15.1668C25.0262 15.4997 25.1405 15.8264 25.3626 16.075C25.927 16.7028 26.2977 17.4804 26.4301 18.3141C26.5624 19.1478 26.4507 20.002 26.1085 20.7737C25.7663 21.5454 25.2081 22.2016 24.5013 22.6631C23.7945 23.1247 22.9693 23.3719 22.1251 23.375H17.1251L17.9001 23.1125L18.6251 22.3875C18.8597 22.153 18.9914 21.8348 18.9914 21.5031C18.9914 21.1714 18.8597 20.8533 18.6251 20.6188C18.3906 20.3842 18.0724 20.2524 17.7407 20.2524C17.409 20.2524 17.0909 20.3842 16.8564 20.6188L13.7314 23.7438C13.6151 23.8599 13.5229 23.9977 13.46 24.1495C13.3971 24.3012 13.3647 24.4639 13.3647 24.6281C13.3647 24.7924 13.3971 24.9551 13.46 25.1068C13.5229 25.2586 13.6151 25.3964 13.7314 25.5125L16.8564 28.6375C17.0909 28.8721 17.409 29.0038 17.7407 29.0038C18.0724 29.0038 18.3906 28.8721 18.6251 28.6375C18.8597 28.403 18.9914 28.0848 18.9914 27.7531C18.9914 27.4214 18.8597 27.1033 18.6251 26.8688L17.8626 26.1063L17.1251 25.875H22.1251C23.4544 25.8756 24.7554 25.4908 25.8706 24.7672C26.9857 24.0436 27.8672 23.0122 28.4082 21.7979C28.9492 20.5837 29.1265 19.2386 28.9188 17.9256C28.711 16.6126 28.1271 15.388 27.2376 14.4Z" fill="#FFB800"/>
</g>
<defs>
<clipPath id="clip0_993_6363">
<rect width="20" height="20" fill="white" transform="translate(9 9)"/>
</clipPath>
</defs>
</svg>
