<svg width="31" height="31" viewBox="0 0 31 31" fill="none" xmlns="http://www.w3.org/2000/svg">
<g clip-path="url(#clip0_1202_9772)">
<path d="M4.25026 15.2743C4.25026 13.5339 4.94167 11.8647 6.17237 10.6339C7.40308 9.40324 9.07228 8.71183 10.8128 8.71183H18.6503L17.2253 9.07746L16.044 10.2587C15.8698 10.4329 15.7316 10.6397 15.6373 10.8673C15.5431 11.095 15.4945 11.3389 15.4945 11.5853C15.4945 11.8316 15.5431 12.0756 15.6373 12.3032C15.7316 12.5308 15.8698 12.7376 16.044 12.9118C16.2182 13.086 16.425 13.2242 16.6526 13.3185C16.8803 13.4128 17.1242 13.4613 17.3706 13.4613C17.6169 13.4613 17.8609 13.4128 18.0885 13.3185C18.3161 13.2242 18.5229 13.086 18.6971 12.9118L23.3846 8.22433C23.559 8.0502 23.6973 7.84341 23.7916 7.61578C23.886 7.38816 23.9345 7.14418 23.9345 6.89777C23.9345 6.65137 23.886 6.40738 23.7916 6.17976C23.6973 5.95214 23.559 5.74535 23.3846 5.57121L18.6971 0.883709C18.3453 0.531882 17.8681 0.334229 17.3706 0.334229C16.873 0.334229 16.3958 0.531882 16.044 0.883709C15.6922 1.23553 15.4945 1.71271 15.4945 2.21027C15.4945 2.70783 15.6922 3.18501 16.044 3.53683L17.1409 4.63371L18.594 4.96183H10.8128C8.82448 4.96178 6.87858 5.53651 5.20939 6.61681C3.54019 7.69711 2.21888 9.23691 1.40457 11.0508C0.590257 12.8647 0.317667 14.8753 0.619624 16.8405C0.921582 18.8057 1.78521 20.6417 3.10651 22.1275C3.4372 22.5004 3.90251 22.7267 4.40007 22.7566C4.89763 22.7865 5.38668 22.6175 5.75964 22.2868C6.1326 21.9561 6.35892 21.4908 6.38881 20.9933C6.41869 20.4957 6.2497 20.0067 5.91901 19.6337C4.8473 18.4342 4.25345 16.8829 4.25026 15.2743Z" fill="#FFB800"/>
<path d="M27.8562 8.37431C27.523 8.00135 27.0553 7.77602 26.556 7.74789C26.0567 7.71976 25.5666 7.89114 25.1937 8.22431C24.8207 8.55749 24.5954 9.02518 24.5672 9.5245C24.5391 10.0238 24.7105 10.5139 25.0437 10.8868C25.8902 11.8284 26.4463 12.9949 26.6449 14.2455C26.8434 15.496 26.6759 16.7774 26.1625 17.9349C25.6492 19.0924 24.8119 20.0767 23.7517 20.769C22.6915 21.4614 21.4536 21.8322 20.1874 21.8368H12.6874L13.8499 21.4431L14.9374 20.3556C15.2892 20.0037 15.4869 19.5266 15.4869 19.029C15.4869 18.5314 15.2892 18.0543 14.9374 17.7024C14.5856 17.3506 14.1084 17.153 13.6108 17.153C13.1133 17.153 12.6361 17.3506 12.2843 17.7024L7.59679 22.3899C7.42246 22.5641 7.28416 22.7709 7.1898 22.9985C7.09544 23.2261 7.04688 23.4701 7.04688 23.7165C7.04688 23.9629 7.09544 24.2069 7.1898 24.4345C7.28416 24.6621 7.42246 24.8689 7.59679 25.0431L12.2843 29.7306C12.6361 30.0824 13.1133 30.28 13.6108 30.28C14.1084 30.28 14.5856 30.0824 14.9374 29.7306C15.2892 29.3787 15.4869 28.9016 15.4869 28.404C15.4869 27.9064 15.2892 27.4293 14.9374 27.0774L13.7937 25.9337L12.6874 25.5868H20.1874C22.1814 25.5877 24.1329 25.0105 25.8056 23.9251C27.4783 22.8397 28.8005 21.2926 29.612 19.4712C30.4235 17.6498 30.6895 15.6322 30.3779 13.6627C30.0663 11.6931 29.1903 9.85622 27.8562 8.37431Z" fill="#FFB800"/>
</g>
<defs>
<clipPath id="clip0_1202_9772">
<rect width="30" height="30" fill="white" transform="translate(0.5 0.274323)"/>
</clipPath>
</defs>
</svg>
