<svg width="38" height="38" viewBox="0 0 38 38" fill="none" xmlns="http://www.w3.org/2000/svg">
<rect width="38" height="38" rx="19" fill="#27272A"/>
<path d="M27.2829 12.6975L27.2827 12.6973C26.6838 11.908 25.9752 11.2084 25.1785 10.6197C25.1063 10.5619 25.0235 10.5187 24.9347 10.4926C24.8414 10.4651 24.7434 10.457 24.6468 10.4688C24.5502 10.4806 24.4571 10.5121 24.3731 10.5613C24.2892 10.6105 24.2162 10.6764 24.1587 10.7549C24.1012 10.8334 24.0604 10.9228 24.0387 11.0176C24.0171 11.1125 24.0151 11.2108 24.033 11.3064C24.0508 11.4021 24.088 11.493 24.1423 11.5738C24.1936 11.6501 24.2592 11.7157 24.3354 11.767C25.4533 12.5943 26.3642 13.6697 26.9964 14.9087C27.6302 16.1508 27.9666 17.5233 27.9791 18.9177C27.9916 20.3122 27.6797 21.6904 27.0683 22.9437C26.4568 24.1968 25.5625 25.2905 24.456 26.1386C23.5214 26.8523 22.4553 27.3746 21.3186 27.6756C20.1818 27.9765 18.9968 28.0502 17.8315 27.8924C16.6663 27.7346 15.5435 27.3484 14.5277 26.7558C13.5119 26.1634 12.623 25.3762 11.9118 24.4396C10.5366 22.6243 9.90045 20.355 10.1316 18.0891C10.3314 16.1313 11.1658 14.3018 12.4943 12.873V14.9375C12.4943 15.1265 12.5693 15.3077 12.7029 15.4413C12.8365 15.5749 13.0177 15.65 13.2067 15.65C13.3957 15.65 13.5769 15.5749 13.7105 15.4413C13.8441 15.3077 13.9191 15.1265 13.9191 14.9375V11.1875C13.9191 10.9986 13.8441 10.8174 13.7105 10.6837C13.5769 10.5501 13.3957 10.475 13.2067 10.475H9.31242C9.12344 10.475 8.94222 10.5501 8.80863 10.6837C8.67503 10.8174 8.6 10.9986 8.6 11.1875C8.6 11.3765 8.67503 11.5577 8.80863 11.6913C8.94222 11.8249 9.12344 11.9 9.31242 11.9H11.4518C10.2475 13.1894 9.38693 14.7686 8.9588 16.4917C8.44965 18.5409 8.57618 20.6967 9.32159 22.6722C10.067 24.6478 11.396 26.3496 13.1318 27.5514C14.8676 28.7532 16.9281 29.398 19.0392 29.4C21.3077 29.4021 23.5134 28.6553 25.3141 27.2753C27.5019 25.5991 28.9372 23.1245 29.3061 20.3928C29.675 17.6611 28.9476 14.8943 27.2829 12.6975Z" fill="#FFB800" stroke="#FFB800" stroke-width="0.8"/>
<path d="M18.9706 19.8687C19.1596 19.8687 19.3408 19.7937 19.4744 19.66C19.608 19.5264 19.683 19.3452 19.683 19.1562V9.3125C19.683 9.12357 19.608 8.94235 19.4744 8.80872C19.3408 8.67509 19.1596 8.6 18.9706 8.6C18.7816 8.6 18.6004 8.67509 18.4668 8.80872C18.3332 8.94235 18.2582 9.12357 18.2582 9.3125V19.1562C18.2582 19.3452 18.3332 19.5264 18.4668 19.66C18.6004 19.7937 18.7816 19.8687 18.9706 19.8687Z" fill="#FFB800" stroke="#FFB800" stroke-width="0.8"/>
</svg>
