<svg width="20" height="20" viewBox="0 0 20 20" fill="none" xmlns="http://www.w3.org/2000/svg">
<path d="M8.20475 0.666992C4.04155 0.666992 0.666626 4.04192 0.666626 8.20512C0.666626 12.3683 4.04155 15.7432 8.20475 15.7432C9.96365 15.7432 11.5811 15.1409 12.8633 14.1322L17.8011 19.0701C17.8845 19.1534 17.9834 19.2195 18.0923 19.2646C18.2012 19.3097 18.3179 19.3329 18.4358 19.3329C18.5536 19.3329 18.6704 19.3097 18.7792 19.2646C18.8881 19.2195 18.9871 19.1534 19.0704 19.0701C19.1538 18.9867 19.2199 18.8878 19.265 18.7789C19.3101 18.67 19.3333 18.5533 19.3333 18.4354C19.3333 18.3176 19.3101 18.2009 19.265 18.092C19.2199 17.9831 19.1538 17.8841 19.0704 17.8008L14.1319 12.863C15.1778 11.5359 15.7455 9.8948 15.7429 8.20512C15.7429 4.04192 12.3679 0.666992 8.20475 0.666992ZM2.46142 8.20512C2.46142 6.68189 3.06652 5.22105 4.1436 4.14397C5.22068 3.06688 6.68152 2.46178 8.20475 2.46178C9.72798 2.46178 11.1888 3.06688 12.2659 4.14397C13.343 5.22105 13.9481 6.68189 13.9481 8.20512C13.9481 9.72834 13.343 11.1892 12.2659 12.2663C11.1888 13.3434 9.72798 13.9484 8.20475 13.9484C6.68152 13.9484 5.22068 13.3434 4.1436 12.2663C3.06652 11.1892 2.46142 9.72834 2.46142 8.20512Z" fill="#A1A1AA"/>
</svg>
