<svg width="40" height="40" viewBox="0 0 40 40" fill="none" xmlns="http://www.w3.org/2000/svg">
<g id="settings_svgrepo.com">
<path id="Vector" d="M20 25C22.7614 25 25 22.7614 25 20C25 17.2386 22.7614 15 20 15C17.2386 15 15 17.2386 15 20C15 22.7614 17.2386 25 20 25Z" stroke="white" stroke-width="2"/>
<path id="Vector_2" d="M6.10202 17.7319C6.8896 18.2268 7.39635 19.0698 7.39635 19.9998C7.39634 20.9299 6.88959 21.7729 6.10202 22.2678C5.56609 22.6044 5.22079 22.8736 4.97512 23.1938C4.43694 23.8953 4.19942 24.7816 4.31482 25.6581C4.40135 26.3154 4.78964 26.9879 5.5662 28.3331C6.34279 29.6781 6.73107 30.3506 7.25709 30.7543C7.95845 31.2924 8.84489 31.5299 9.72139 31.4146C10.1214 31.3619 10.5271 31.1974 11.0866 30.9018C11.9091 30.4671 12.8926 30.4498 13.6982 30.9149C14.5038 31.3801 14.9804 32.2404 15.0152 33.1699C15.0389 33.8024 15.0993 34.2361 15.2537 34.6089C15.592 35.4256 16.241 36.0746 17.0577 36.4129C17.6703 36.6666 18.4468 36.6666 20 36.6666C21.5532 36.6666 22.3297 36.6666 22.9423 36.4129C23.759 36.0746 24.408 35.4256 24.7463 34.6089C24.9007 34.2361 24.9612 33.8024 24.9848 33.1701C25.0195 32.2404 25.4962 31.3801 26.3018 30.9149C27.1073 30.4499 28.0908 30.4673 28.9132 30.9019C29.4728 31.1976 29.8785 31.3621 30.2785 31.4148C31.155 31.5303 32.0415 31.2926 32.7428 30.7544C33.2688 30.3509 33.6572 29.6783 34.4338 28.3333C34.7795 27.7344 35.0483 27.2689 35.2477 26.8786M33.8978 22.2679C33.1103 21.7731 32.6037 20.9301 32.6035 20.0001C32.6035 19.0699 33.1103 18.2268 33.8978 17.7319C34.4338 17.3953 34.779 17.1261 35.0247 16.8059C35.5628 16.1046 35.8003 15.2181 35.685 14.3416C35.5985 13.6843 35.2102 13.0117 34.4335 11.6667C33.657 10.3216 33.2687 9.64909 32.7427 9.24545C32.0413 8.70727 31.1548 8.46975 30.2783 8.58514C29.8783 8.63782 29.4727 8.80225 28.9132 9.09797C28.0907 9.53265 27.1072 9.54999 26.3017 9.08485C25.4962 8.61975 25.0195 7.75942 24.9848 6.82997C24.9612 6.19745 24.9007 5.76384 24.7463 5.39097C24.408 4.57422 23.759 3.9253 22.9423 3.58699C22.3297 3.33325 21.5532 3.33325 20 3.33325C18.4468 3.33325 17.6703 3.33325 17.0577 3.58699C16.241 3.9253 15.592 4.57422 15.2537 5.39097C15.0993 5.7638 15.0389 6.19739 15.0152 6.82982C14.9804 7.75935 14.5037 8.61977 13.6982 9.08485C12.8926 9.54995 11.9091 9.53257 11.0867 9.09792C10.5272 8.80219 10.1215 8.63774 9.7214 8.58505C8.8449 8.46967 7.95847 8.70719 7.2571 9.24537C6.73109 9.649 6.3428 10.3215 5.56622 11.6666C5.2205 12.2654 4.95174 12.7309 4.75229 13.1211" stroke="white" stroke-width="2" stroke-linecap="round"/>
</g>
</svg>
