<svg width="1122" height="1261" viewBox="0 0 1122 1261" fill="none" xmlns="http://www.w3.org/2000/svg">
<path d="M718.391 1259.26C731.577 1255.87 763.978 1249.47 842.342 1141.91C918.973 1036.72 1064.67 835.753 1064.67 835.753C1064.67 835.753 1127.28 758.296 1051.63 643.461C957.064 499.918 822.751 608.235 578.05 557.75C333.348 507.265 360.376 675.419 289.268 706.191C218.16 736.962 318.467 888.916 326.755 1003.07C335.044 1117.23 412.758 1197.48 447.505 1228.37C482.251 1259.26 705.204 1262.66 718.391 1259.26Z" fill="url(#paint0_radial_240_15815)"/>
<path d="M127.607 713.08C-0.0927658 260.11 322.088 -70.9826 412.198 56.7568C502.309 184.496 534.195 303.72 679.362 199.152C824.53 94.5835 937.812 74.1848 1051.09 303.72C1164.38 533.254 1158.43 713.08 897.212 652.082C635.99 591.084 287.232 1279.29 127.607 713.08Z" fill="url(#paint1_linear_240_15815)" fill-opacity="0.74"/>
<defs>
<radialGradient id="paint0_radial_240_15815" cx="0" cy="0" r="1" gradientUnits="userSpaceOnUse" gradientTransform="translate(835.02 723.408) rotate(132.005) scale(806.713 956.852)">
<stop stop-color="#FFC700"/>
<stop offset="0.536458" stop-color="#FFC700"/>
<stop offset="0.791667" stop-color="#FFC700"/>
<stop offset="1" stop-color="#FFC700"/>
</radialGradient>
<linearGradient id="paint1_linear_240_15815" x1="638.367" y1="100.327" x2="580.537" y2="959.845" gradientUnits="userSpaceOnUse">
<stop stop-color="white"/>
<stop offset="0.630208" stop-color="white"/>
<stop offset="1" stop-color="white"/>
</linearGradient>
</defs>
</svg>
