<svg width="34" height="34" viewBox="0 0 34 34" fill="none" xmlns="http://www.w3.org/2000/svg">
<g id="Company">
<path id="Vector" d="M16.2917 13.8833C17.5691 13.8833 18.7943 13.3759 19.6976 12.4726C20.6009 11.5693 21.1083 10.3441 21.1083 9.06667C21.1083 7.78921 20.6009 6.56407 19.6976 5.66077C18.7943 4.75747 17.5691 4.25 16.2917 4.25C15.0142 4.25 13.7891 4.75747 12.8858 5.66077C11.9825 6.56407 11.475 7.78921 11.475 9.06667C11.475 10.3441 11.9825 11.5693 12.8858 12.4726C13.7891 13.3759 15.0142 13.8833 16.2917 13.8833ZM8.46458 17.4958C9.263 17.4958 10.0287 17.1787 10.5933 16.6141C11.1578 16.0495 11.475 15.2838 11.475 14.4854C11.475 13.687 11.1578 12.9213 10.5933 12.3567C10.0287 11.7922 9.263 11.475 8.46458 11.475C7.66617 11.475 6.90046 11.7922 6.3359 12.3567C5.77133 12.9213 5.45417 13.687 5.45417 14.4854C5.45417 15.2838 5.77133 16.0495 6.3359 16.6141C6.90046 17.1787 7.66617 17.4958 8.46458 17.4958ZM27.1292 14.4854C27.1292 15.2838 26.812 16.0495 26.2474 16.6141C25.6829 17.1787 24.9172 17.4958 24.1187 17.4958C23.3203 17.4958 22.5546 17.1787 21.9901 16.6141C21.4255 16.0495 21.1083 15.2838 21.1083 14.4854C21.1083 13.687 21.4255 12.9213 21.9901 12.3567C22.5546 11.7922 23.3203 11.475 24.1187 11.475C24.9172 11.475 25.6829 11.7922 26.2474 12.3567C26.812 12.9213 27.1292 13.687 27.1292 14.4854ZM16.2917 15.0875C17.8885 15.0875 19.4199 15.7218 20.549 16.851C21.6782 17.9801 22.3125 19.5115 22.3125 21.1083V28.3333H10.2708V21.1083C10.2708 19.5115 10.9052 17.9801 12.0343 16.851C13.1634 15.7218 14.6948 15.0875 16.2917 15.0875ZM7.8625 21.1083C7.8625 20.2738 7.98292 19.4683 8.2093 18.7072L8.00459 18.7241C6.97248 18.8374 6.01852 19.3277 5.32564 20.1011C4.63276 20.8744 4.24973 21.8763 4.25 22.9146V28.3333H7.8625V21.1083ZM28.3333 28.3333V22.9146C28.3335 21.8409 27.9238 20.8077 27.188 20.0258C26.4522 19.2439 25.4457 18.7723 24.374 18.7072C24.5992 19.4683 24.7208 20.2738 24.7208 21.1083V28.3333H28.3333Z" fill="#FFC700"/>
</g>
</svg>
