<svg width="23" height="20" viewBox="0 0 23 20" fill="none" xmlns="http://www.w3.org/2000/svg">
<path d="M10.7276 1.48051C10.541 1.47908 10.3563 1.51848 10.1864 1.59595C10.0166 1.67342 9.86569 1.7871 9.74425 1.92905L6.17427 5.98418L4.82886 4.62107C4.71117 4.49821 4.57026 4.40002 4.41433 4.3322C4.25841 4.26439 4.09057 4.22832 3.9206 4.22608C3.75063 4.22384 3.58191 4.25548 3.42425 4.31915C3.2666 4.38283 3.12316 4.47728 3.00228 4.59699C2.8814 4.71671 2.78549 4.85931 2.72014 5.0165C2.65478 5.17369 2.62128 5.34233 2.62158 5.5126C2.62189 5.68288 2.65599 5.8514 2.72191 6.00835C2.78783 6.1653 2.88425 6.30756 3.00556 6.42684L5.31613 8.76779C5.43969 8.89296 5.58763 8.99135 5.75074 9.05685C5.91386 9.12235 6.08867 9.15357 6.26434 9.14855C6.44 9.14354 6.61276 9.10241 6.77189 9.02771C6.93102 8.95301 7.07312 8.84634 7.18937 8.71433L11.6674 3.62782C11.8336 3.44425 11.9433 3.2164 11.9832 2.97176C12.0231 2.72712 11.9914 2.47615 11.8921 2.24913C11.7927 2.02212 11.6299 1.82875 11.4233 1.69236C11.2167 1.55597 10.975 1.4824 10.7276 1.48051Z" fill="#FFB800"/>
<path d="M20.0386 10.9427C19.8487 10.9445 19.6616 10.9878 19.4902 11.0696C19.3188 11.1514 19.1673 11.2696 19.0462 11.4161L15.2907 15.8323C15.1768 15.9625 15.0899 16.1141 15.0349 16.2782C14.98 16.4424 14.9582 16.6158 14.9707 16.7885C14.9833 16.9612 15.03 17.1296 15.1081 17.2841C15.1862 17.4385 15.2942 17.5758 15.4258 17.6881C15.5574 17.8004 15.7099 17.8853 15.8745 17.938C16.0392 17.9907 16.2126 18.0101 16.3848 17.9951C16.557 17.9801 16.7245 17.9309 16.8775 17.8505C17.0306 17.7701 17.1661 17.66 17.2763 17.5266L21.0318 13.1104C21.1978 12.9207 21.3054 12.6871 21.3417 12.4375C21.378 12.188 21.3414 11.9333 21.2364 11.7041C21.1314 11.475 20.9624 11.2811 20.7499 11.146C20.5373 11.0109 20.2903 10.9403 20.0386 10.9427Z" fill="#FFB800"/>
<path d="M16.2447 10.9429C15.9964 10.948 15.7547 11.0241 15.548 11.1621C15.3414 11.3001 15.1783 11.4944 15.0781 11.7221C14.9779 11.9497 14.9447 12.2013 14.9824 12.4473C15.02 12.6932 15.127 12.9232 15.2907 13.1104L19.0462 17.5266C19.1564 17.66 19.292 17.7701 19.4451 17.8505C19.5981 17.9309 19.7656 17.9801 19.9378 17.9951C20.11 18.0101 20.2834 17.9907 20.448 17.938C20.6127 17.8853 20.7652 17.8004 20.8968 17.6881C21.0284 17.5758 21.1363 17.4385 21.2145 17.2841C21.2926 17.1296 21.3393 16.9612 21.3518 16.7885C21.3644 16.6158 21.3426 16.4424 21.2877 16.2782C21.2327 16.1141 21.1458 15.9625 21.0318 15.8323L17.2763 11.4161C17.1511 11.2645 16.9932 11.1432 16.8146 11.0613C16.6359 10.9793 16.4411 10.9389 16.2447 10.9429Z" fill="#FFB800"/>
<path d="M19.6595 0.000131587C19.5486 0.000669677 19.4392 0.0254466 19.3389 0.0727315C19.2386 0.120016 19.1498 0.188669 19.0787 0.273895L3.85967 18.0053C3.79336 18.0812 3.7427 18.1694 3.71063 18.2649C3.67856 18.3605 3.6657 18.4614 3.6728 18.562C3.6799 18.6625 3.70681 18.7606 3.75199 18.8507C3.79717 18.9408 3.85972 19.021 3.93602 19.0867C4.01232 19.1524 4.10086 19.2023 4.19653 19.2335C4.2922 19.2648 4.3931 19.2767 4.4934 19.2686C4.5937 19.2606 4.69142 19.2327 4.7809 19.1866C4.87038 19.1405 4.94986 19.0771 5.01474 19.0001L20.2338 1.26862C20.3312 1.15833 20.3946 1.02216 20.4165 0.876547C20.4384 0.73093 20.4177 0.582087 20.357 0.447977C20.2963 0.313868 20.1981 0.200223 20.0743 0.120756C19.9506 0.0412896 19.8065 -0.000603754 19.6595 0.000131587Z" fill="#FFB800"/>
</svg>
