<svg xmlns="http://www.w3.org/2000/svg" xmlns:xlink="http://www.w3.org/1999/xlink" xmlns:serif="http://www.serif.com/" viewBox="0 0 267 333.75" version="1.1" xml:space="preserve" style="" x="0px" y="0px" fill-rule="evenodd" clip-rule="evenodd" stroke-linejoin="round" stroke-miterlimit="2"><path d="M78.627,87.357l-6.007,-6.008c-5.448,-5.447 -14.293,-5.447 -19.741,0c-5.448,5.448 -5.448,14.294 -0,19.741l15.878,15.878c5.451,5.452 14.289,5.452 19.741,0c-0,0 36.409,-36.409 36.409,-36.409c5.448,-5.448 5.448,-14.294 0,-19.741c-5.448,-5.448 -14.293,-5.448 -19.741,-0l-26.539,26.539Zm-21.329,9.314c-3.008,-3.009 -3.008,-7.894 0,-10.902c3.009,-3.009 7.894,-3.009 10.902,-0c0,-0 6.656,6.656 7.987,7.987c1.226,1.225 2.44,1.145 2.44,1.145l2.21,-0.915l28.749,-28.749c3.008,-3.008 7.893,-3.008 10.902,0c3.008,3.009 3.008,7.894 -0,10.902c-0,0 -36.41,36.41 -36.41,36.41c-3.01,3.01 -7.891,3.01 -10.902,-0c0,-0 -15.878,-15.878 -15.878,-15.878Z"/><path d="M177.774,158.033l-8.335,-8.335c-5.447,-5.447 -14.293,-5.447 -19.741,0c-5.447,5.448 -5.447,14.294 0,19.741c0,0 8.335,8.335 8.335,8.335c-0,-0 -8.335,8.334 -8.335,8.334c-5.447,5.448 -5.447,14.293 0,19.741c5.448,5.448 14.294,5.448 19.741,-0c0,-0 8.335,-8.334 8.335,-8.334c-0,-0 8.334,8.334 8.334,8.334c5.448,5.448 14.293,5.448 19.741,-0c5.448,-5.448 5.448,-14.293 -0,-19.741c-0,-0 -8.334,-8.334 -8.334,-8.334c-0,-0 8.334,-8.335 8.334,-8.335c5.448,-5.447 5.448,-14.293 -0,-19.741c-5.448,-5.447 -14.293,-5.447 -19.741,0l-8.334,8.335Zm-2.21,6.629c1.22,1.22 3.199,1.22 4.419,-0l10.544,-10.544c3.009,-3.009 7.894,-3.009 10.902,-0c3.009,3.008 3.009,7.893 0,10.902c0,-0 -10.544,10.544 -10.544,10.544c-1.22,1.22 -1.22,3.199 0,4.419l10.544,10.544c3.009,3.009 3.009,7.894 0,10.902c-3.008,3.009 -7.893,3.009 -10.902,0c0,0 -10.544,-10.544 -10.544,-10.544c-1.22,-1.22 -3.199,-1.22 -4.419,0l-10.544,10.544c-3.009,3.009 -7.894,3.009 -10.902,0c-3.009,-3.008 -3.009,-7.893 -0,-10.902c-0,0 10.544,-10.544 10.544,-10.544c1.22,-1.22 1.22,-3.199 -0,-4.419l-10.544,-10.544c-3.009,-3.009 -3.009,-7.894 -0,-10.902c3.008,-3.009 7.893,-3.009 10.902,-0c-0,-0 10.544,10.544 10.544,10.544Z"/><path d="M88.893,13.542c-41.588,-0 -75.351,33.763 -75.351,75.351c-0,41.588 33.763,75.351 75.351,75.351c41.588,0 75.351,-33.763 75.351,-75.351c0,-41.588 -33.763,-75.351 -75.351,-75.351Zm0,6.25c38.138,-0 69.101,30.963 69.101,69.101c0,38.138 -30.963,69.101 -69.101,69.101c-38.138,0 -69.101,-30.963 -69.101,-69.101c-0,-38.138 30.963,-69.101 69.101,-69.101Z"/><path d="M157.688,105.134c-1.06,0.293 -1.887,1.121 -2.18,2.18c-6.449,23.343 -24.852,41.746 -48.194,48.194c-1.059,0.293 -1.887,1.12 -2.18,2.18c-1.767,6.398 -2.712,13.132 -2.712,20.086c0,41.587 33.764,75.351 75.352,75.351c41.587,-0 75.351,-33.764 75.351,-75.351c-0,-41.588 -33.764,-75.352 -75.351,-75.352c-6.954,0 -13.688,0.945 -20.086,2.712Zm3.343,5.584c5.363,-1.337 10.971,-2.046 16.743,-2.046c38.138,0 69.101,30.964 69.101,69.102c-0,38.138 -30.963,69.101 -69.101,69.101c-38.138,-0 -69.102,-30.963 -69.102,-69.101c0,-5.772 0.709,-11.38 2.046,-16.743c24.048,-7.276 43.035,-26.262 50.311,-50.314l0.002,0.001Z"/></svg>