<svg width="19" height="19" viewBox="0 0 19 19" fill="none" xmlns="http://www.w3.org/2000/svg">
<g id="Group">
<path id="Vector" fill-rule="evenodd" clip-rule="evenodd" d="M9.49935 13.0505C9.67837 13.0505 9.85006 12.9794 9.97665 12.8528C10.1032 12.7262 10.1743 12.5545 10.1743 12.3755V2.4998L11.6864 4.2647C11.8028 4.40076 11.9686 4.48497 12.1472 4.49881C12.3257 4.51265 12.5025 4.45499 12.6385 4.3385C12.7746 4.22202 12.8588 4.05626 12.8727 3.87769C12.8865 3.69911 12.8288 3.52236 12.7123 3.3863L10.0123 0.236302C9.94898 0.162201 9.87031 0.102707 9.78175 0.061915C9.6932 0.0211228 9.59685 0 9.49935 0C9.40185 0 9.3055 0.0211228 9.21695 0.061915C9.12839 0.102707 9.04972 0.162201 8.98635 0.236302L6.28635 3.3863C6.22867 3.45367 6.18483 3.53174 6.15733 3.61605C6.12982 3.70036 6.11919 3.78927 6.12604 3.87769C6.1329 3.96611 6.1571 4.05231 6.19727 4.13138C6.23743 4.21044 6.29278 4.28083 6.36015 4.3385C6.42752 4.39618 6.50559 4.44002 6.5899 4.46753C6.67421 4.49503 6.76311 4.50566 6.85153 4.49881C6.93995 4.49196 7.02616 4.46775 7.10523 4.42759C7.18429 4.38742 7.25467 4.33207 7.31235 4.2647L8.82435 2.5007V12.3755C8.82435 12.7481 9.12675 13.0505 9.49935 13.0505Z" fill="#FFB800"/>
<path id="Vector_2" d="M13.1 6.97559C12.4682 6.97559 12.1523 6.97559 11.9246 7.12769C11.8267 7.19319 11.7426 7.27728 11.6771 7.37519C11.525 7.60289 11.525 7.91879 11.525 8.55059V12.3756C11.525 12.9126 11.3117 13.4277 10.9319 13.8075C10.5521 14.1872 10.0371 14.4006 9.5 14.4006C8.96294 14.4006 8.44787 14.1872 8.06811 13.8075C7.68835 13.4277 7.475 12.9126 7.475 12.3756V8.55059C7.475 7.91879 7.475 7.60289 7.3229 7.37519C7.25739 7.27728 7.1733 7.19319 7.0754 7.12769C6.8477 6.97559 6.5318 6.97559 5.9 6.97559C3.3548 6.97559 2.0813 6.97559 1.2911 7.76669C0.5 8.55689 0.5 9.82859 0.5 12.3747V13.2747C0.5 15.8217 0.5 17.0934 1.2911 17.8845C2.0813 18.6756 3.3548 18.6756 5.9 18.6756H13.1C15.6452 18.6756 16.9187 18.6756 17.7089 17.8845C18.5 17.0934 18.5 15.8208 18.5 13.2756V12.3756C18.5 9.82949 18.5 8.55689 17.7089 7.76669C16.9187 6.97559 15.6452 6.97559 13.1 6.97559Z" fill="#FFB800"/>
</g>
</svg>
