<svg width="24" height="25" viewBox="0 0 24 25" fill="none" xmlns="http://www.w3.org/2000/svg">
<path d="M6 4.5C5.20435 4.5 4.44129 4.80436 3.87868 5.34614C3.31607 5.88791 3 6.62271 3 7.38889V15.3889C3 16.1551 3.31607 16.8899 3.87868 17.4316C4.44129 17.9734 5.20435 18.2778 6 18.2778H15.6923C16.488 18.2778 17.251 17.9734 17.8136 17.4316C18.3762 16.8899 18.6923 16.1551 18.6923 15.3889V7.38889C18.6923 6.62271 18.3762 5.88791 17.8136 5.34614C17.251 4.80436 16.488 4.5 15.6923 4.5H6ZM8.53846 13.6111V8.72311C8.5385 8.60346 8.57198 8.48602 8.6354 8.38312C8.69881 8.28022 8.78981 8.19565 8.89885 8.13828C9.00789 8.08091 9.13096 8.05287 9.25514 8.05708C9.37932 8.06129 9.50003 8.09761 9.60461 8.16222L13.8674 10.7924C13.9326 10.8327 13.9862 10.888 14.0233 10.9534C14.0605 11.0188 14.0799 11.0921 14.0799 11.1667C14.0799 11.2412 14.0605 11.3145 14.0233 11.3799C13.9862 11.4453 13.9326 11.5007 13.8674 11.5409L9.60461 14.1711C9.50003 14.2357 9.37932 14.272 9.25514 14.2763C9.13096 14.2805 9.00789 14.2524 8.89885 14.1951C8.78981 14.1377 8.69881 14.0531 8.6354 13.9502C8.57198 13.8473 8.5385 13.7299 8.53846 13.6102V13.6111ZM8.30769 20.5C7.8037 20.5005 7.30772 20.3785 6.86563 20.1455C6.42355 19.9124 6.04963 19.5758 5.77846 19.1667H16.1538C17.0719 19.1667 17.9524 18.8155 18.6015 18.1904C19.2507 17.5652 19.6154 16.7174 19.6154 15.8333V7.17556C20.0402 7.43668 20.3898 7.79675 20.6318 8.22246C20.8738 8.64817 21.0005 9.12578 21 9.61111V15.8333C21 18.4111 18.8308 20.5 16.1538 20.5H8.30769Z" fill="white"/>
</svg>
