<svg width="16" height="16" viewBox="0 0 16 16" fill="none" xmlns="http://www.w3.org/2000/svg">
<path d="M8.00032 13.3333C9.05516 13.3333 10.0863 13.0205 10.9634 12.4345C11.8404 11.8484 12.524 11.0155 12.9277 10.0409C13.3313 9.0664 13.437 7.99404 13.2312 6.95948C13.0254 5.92491 12.5174 4.9746 11.7716 4.22872C11.0257 3.48285 10.0754 2.97489 9.0408 2.76911C8.00624 2.56332 6.93389 2.66894 5.95935 3.0726C4.98481 3.47627 4.15185 4.15986 3.56582 5.03692C2.97979 5.91398 2.66699 6.94513 2.66699 7.99996C2.66858 9.41396 3.23099 10.7696 4.23084 11.7694C5.23069 12.7693 6.58632 13.3317 8.00032 13.3333ZM8.00041 11.4212C7.89064 11.4212 7.78334 11.3887 7.69208 11.3277C7.60081 11.2667 7.52967 11.18 7.48767 11.0786C7.44566 10.9772 7.43467 10.8656 7.45608 10.758C7.4775 10.6503 7.53035 10.5514 7.60797 10.4738C7.68558 10.3962 7.78447 10.3433 7.89213 10.3219C7.99979 10.3005 8.11138 10.3115 8.21279 10.3535C8.3142 10.3955 8.40087 10.4666 8.46186 10.5579C8.52284 10.6492 8.55539 10.7565 8.55539 10.8662C8.55538 11.0134 8.49691 11.1546 8.39284 11.2587C8.28876 11.3627 8.1476 11.4212 8.00041 11.4212ZM7.40877 5.1704C7.40877 5.01349 7.4711 4.86302 7.58205 4.75207C7.693 4.64112 7.84347 4.57879 8.00037 4.57879C8.15728 4.57879 8.30775 4.64112 8.4187 4.75207C8.52965 4.86302 8.59198 5.01349 8.59198 5.1704V8.91997C8.59198 9.07688 8.52965 9.22735 8.4187 9.3383C8.30775 9.44925 8.15728 9.51158 8.00037 9.51158C7.84347 9.51158 7.693 9.44925 7.58205 9.3383C7.4711 9.22735 7.40877 9.07688 7.40877 8.91997V5.1704Z" fill="#EC1B24"/>
</svg>
