<svg width="20" height="23" viewBox="0 0 20 23" fill="none" xmlns="http://www.w3.org/2000/svg">
<g id="Vector">
<path d="M0.13916 22V16.1818H3.78689V16.9375H1.017V18.7102H3.59655V19.4631H1.017V21.2443H3.82098V22H0.13916Z" fill="#FFB800"/>
<path d="M5.57027 16.1818L6.96231 18.4574H7.00777L8.39981 16.1818H9.41686L7.60436 19.0909L9.42822 22H8.4055L7.00777 19.7557H6.96231L5.56459 22H4.54186L6.39697 19.0909L4.55322 16.1818H5.57027Z" fill="#FFB800"/>
<path d="M10.2876 22V16.1818H11.1654V21.2443H13.8018V22H10.2876Z" fill="#FFB800"/>
<path fill-rule="evenodd" clip-rule="evenodd" d="M19.1875 6.32812V19.6875C19.1875 20.4334 18.8911 21.1488 18.3637 21.6762C17.8362 22.2037 17.1209 22.5 16.375 22.5H14.9687V21.0938H16.375C16.7479 21.0938 17.1056 20.9456 17.3693 20.6819C17.633 20.4181 17.7812 20.0605 17.7812 19.6875V6.32812H14.9687C14.4093 6.32812 13.8727 6.10589 13.4772 5.7103C13.0816 5.31472 12.8593 4.77819 12.8593 4.21875V1.40625H5.12496C4.75199 1.40625 4.39431 1.55441 4.13059 1.81813C3.86686 2.08185 3.71871 2.43954 3.71871 2.8125V15.4688H2.31246V2.8125C2.31246 2.06658 2.60877 1.35121 3.13622 0.823762C3.66366 0.296316 4.37903 0 5.12496 0H12.8593L19.1875 6.32812Z" fill="#FFB800"/>
</g>
</svg>
