<svg width="121" height="120" viewBox="0 0 121 120" fill="none" xmlns="http://www.w3.org/2000/svg">
<g id="Group">
<path id="Vector" d="M32.8802 49.5264H55.7373V119.998H32.8802V49.5264Z" fill="#FFB800"/>
<path id="Vector_2" d="M65.2627 68.6218H88.1198V120.001H65.2627V68.6218Z" fill="#FFB800"/>
<path id="Vector_3" d="M97.6426 36.3997H120.5V119.997H97.6426V36.3997Z" fill="#FFB800"/>
<path id="Vector_4" d="M0.500244 76.116H23.3574V119.999H0.500244V76.116Z" fill="#FFB800"/>
<path id="Vector_5" d="M11.9292 58.8747C17.1877 58.8747 21.452 54.5858 21.452 49.2997C21.452 48.0462 21.1963 46.8554 20.7601 45.7562L39.086 30.7068C40.5871 31.6974 42.3784 32.2849 44.3084 32.2849C46.7591 32.2849 48.9708 31.327 50.6589 29.7985L67.426 39.7179C67.266 40.4101 67.1656 41.122 67.1656 41.8638C67.1656 47.1547 71.428 51.4426 76.6894 51.4426C81.9508 51.4426 86.2151 47.1556 86.2151 41.8638C86.2151 40.2838 85.7975 38.817 85.1242 37.5027L104.663 18.0231C105.987 18.7247 107.471 19.1587 109.072 19.1587C114.333 19.1587 118.596 14.8698 118.596 9.58368C118.596 4.29278 114.334 0 109.072 0C103.811 0 99.5484 4.29278 99.5484 9.58368C99.5484 11.1618 99.966 12.6305 100.638 13.9447L81.099 33.4215C79.7746 32.7199 78.2911 32.2858 76.6894 32.2858C74.2378 32.2858 72.028 33.2437 70.339 34.7723L53.5718 24.8538C53.7309 24.1607 53.8332 23.4478 53.8332 22.707C53.8332 17.4161 49.5689 13.1281 44.3103 13.1281C39.0498 13.1281 34.7846 17.417 34.7846 22.707C34.7846 23.9624 35.0404 25.1513 35.4756 26.2505L17.1535 41.2979C15.6524 40.3045 13.8602 39.717 11.9311 39.717C6.67063 39.717 2.4054 44.0089 2.4054 49.3007C2.4054 54.5859 6.66873 58.8748 11.9292 58.8748L11.9292 58.8747Z" fill="#FFB800"/>
</g>
</svg>
    