<svg width="91" height="90" viewBox="0 0 91 90" fill="none" xmlns="http://www.w3.org/2000/svg">
<g id="Group">
<path id="Vector" d="M74.6756 66.4536C68.5248 67.9305 62.1037 67.859 55.9873 66.2453C49.8709 64.6317 44.2502 61.5264 39.6284 57.2074C35.0067 52.8884 31.5282 47.4906 29.5045 41.4974C27.4808 35.5042 26.975 29.1026 28.0325 22.866C27.8716 23.0213 27.7018 23.167 27.5239 23.3025C26.2639 24.261 24.6889 24.6165 21.5389 25.3275L18.6813 25.9755C7.61116 28.482 2.07608 29.7331 0.757561 33.9676C-0.556458 38.1977 3.2146 42.6123 10.7612 51.4369L12.7142 53.7184C14.8563 56.2249 15.9318 57.4805 16.4133 59.0285C16.8948 60.581 16.7328 62.255 16.4088 65.5986L16.1118 68.6451C14.9733 80.4218 14.4018 86.3079 17.8488 88.9224C21.2959 91.5415 26.4799 89.1564 36.8391 84.3819L39.5256 83.1488C42.4687 81.7898 43.9402 81.1148 45.5017 81.1148C47.0632 81.1148 48.5348 81.7898 51.4823 83.1488L54.1598 84.3819C64.5235 89.1519 69.7076 91.537 73.1501 88.9269C76.6016 86.3079 76.0301 80.4218 74.8916 68.6451L74.6756 66.4536Z" fill="#FFC700"/>
<path id="Vector_2" opacity="0.5" d="M32.6882 15.3362L31.2122 17.9823C29.5922 20.8893 28.7821 22.3428 27.5221 23.3013C27.7021 23.1663 27.8686 23.0223 28.0306 22.8648C26.9729 29.1019 27.4787 35.504 29.5026 41.4977C31.5265 47.4914 35.0054 52.8895 39.6278 57.2086C44.2501 61.5277 49.8715 64.6329 55.9885 66.2462C62.1055 67.8594 68.5272 67.9303 74.6783 66.4525L74.5883 65.5974C74.2688 62.2539 74.1068 60.5799 74.5883 59.0273C75.0698 57.4793 76.1408 56.2238 78.2874 53.7173L80.2404 51.4357C87.787 42.6156 91.558 38.201 90.2395 33.9665C88.9255 29.7319 83.3904 28.4764 72.3203 25.9744L69.4582 25.3264C66.3127 24.6154 64.7377 24.2598 63.4731 23.3013C62.2131 22.3428 61.4031 20.8893 59.7831 17.9823L58.3116 15.3362C52.61 5.11207 49.7614 0 45.4999 0C41.2383 0 38.3898 5.11207 32.6882 15.3362Z" fill="#FFC700"/>
</g>
</svg>
