<svg width="91" height="90" viewBox="0 0 91 90" fill="none" xmlns="http://www.w3.org/2000/svg">
<path d="M45.5 36C50.2739 36 54.8523 34.1036 58.2279 30.7279C61.6036 27.3523 63.5 22.7739 63.5 18C63.5 13.2261 61.6036 8.64773 58.2279 5.27208C54.8523 1.89642 50.2739 0 45.5 0C40.7261 0 36.1477 1.89642 32.7721 5.27208C29.3964 8.64773 27.5 13.2261 27.5 18C27.5 22.7739 29.3964 27.3523 32.7721 30.7279C36.1477 34.1036 40.7261 36 45.5 36ZM16.25 49.5C19.2337 49.5 22.0952 48.3147 24.205 46.205C26.3147 44.0952 27.5 41.2337 27.5 38.25C27.5 35.2663 26.3147 32.4048 24.205 30.295C22.0952 28.1853 19.2337 27 16.25 27C13.2663 27 10.4048 28.1853 8.29505 30.295C6.18527 32.4048 5 35.2663 5 38.25C5 41.2337 6.18527 44.0952 8.29505 46.205C10.4048 48.3147 13.2663 49.5 16.25 49.5ZM86 38.25C86 41.2337 84.8147 44.0952 82.7049 46.205C80.5952 48.3147 77.7337 49.5 74.75 49.5C71.7663 49.5 68.9048 48.3147 66.7951 46.205C64.6853 44.0952 63.5 41.2337 63.5 38.25C63.5 35.2663 64.6853 32.4048 66.7951 30.295C68.9048 28.1853 71.7663 27 74.75 27C77.7337 27 80.5952 28.1853 82.7049 30.295C84.8147 32.4048 86 35.2663 86 38.25ZM45.5 40.5C51.4674 40.5 57.1903 42.8705 61.4099 47.0901C65.6295 51.3097 68 57.0326 68 63V90H23V63C23 57.0326 25.3705 51.3097 29.5901 47.0901C33.8097 42.8705 39.5326 40.5 45.5 40.5ZM14 63C14 59.8815 14.45 56.871 15.296 54.027L14.531 54.09C10.674 54.5135 7.10899 56.3459 4.51968 59.2358C1.93038 62.1257 0.498993 65.8698 0.500001 69.75V90H14V63ZM90.5 90V69.75C90.5005 65.7377 88.9696 61.8764 86.2199 58.9544C83.4702 56.0324 79.709 54.27 75.704 54.027C76.5455 56.871 77 59.8815 77 63V90H90.5Z" fill="#FFC700"/>
</svg>
