<svg width="28" height="28" viewBox="0 0 28 28" fill="none" xmlns="http://www.w3.org/2000/svg">
<path d="M21.7095 10.313V9.26973C21.7095 8.79501 21.51 8.33972 21.1548 8.00404C20.7997 7.66836 20.318 7.47978 19.8158 7.47978H19.5452V6.45695C19.5452 5.98222 19.3457 5.52694 18.9906 5.19126C18.6354 4.85558 18.1538 4.66699 17.6515 4.66699H10.3472C9.84493 4.66699 9.36325 4.85558 9.00811 5.19126C8.65297 5.52694 8.45346 5.98222 8.45346 6.45695V7.47978H8.18292C7.68068 7.47978 7.199 7.66836 6.84386 8.00404C6.48872 8.33972 6.2892 8.79501 6.2892 9.26973V10.313C5.83888 10.3745 5.42701 10.5871 5.12894 10.912C4.83088 11.237 4.66655 11.6525 4.66602 12.0825V21.5437C4.66602 22.0184 4.86553 22.4737 5.22067 22.8094C5.57581 23.1451 6.05749 23.3337 6.55974 23.3337H21.439C21.9412 23.3337 22.4229 23.1451 22.778 22.8094C23.1332 22.4737 23.3327 22.0184 23.3327 21.5437V12.0825C23.3321 11.6525 23.1678 11.237 22.8698 10.912C22.5717 10.5871 22.1598 10.3745 21.7095 10.313ZM10.0766 6.45695C10.0766 6.38913 10.1051 6.32409 10.1559 6.27613C10.2066 6.22818 10.2754 6.20124 10.3472 6.20124H17.6515C17.7233 6.20124 17.7921 6.22818 17.8428 6.27613C17.8936 6.32409 17.9221 6.38913 17.9221 6.45695V7.47978H10.0766V6.45695ZM16.5694 16.4295H11.4293C11.2141 16.4295 11.0076 16.3487 10.8554 16.2049C10.7032 16.061 10.6177 15.8659 10.6177 15.6624C10.6177 15.459 10.7032 15.2639 10.8554 15.12C11.0076 14.9761 11.2141 14.8953 11.4293 14.8953H16.5694C16.7846 14.8953 16.9911 14.9761 17.1433 15.12C17.2955 15.2639 17.381 15.459 17.381 15.6624C17.381 15.8659 17.2955 16.061 17.1433 16.2049C16.9911 16.3487 16.7846 16.4295 16.5694 16.4295ZM20.0863 10.2926H7.91239V9.26973C7.91239 9.20191 7.94089 9.13687 7.99163 9.08892C8.04236 9.04096 8.11117 9.01402 8.18292 9.01402H19.8158C19.8875 9.01402 19.9563 9.04096 20.0071 9.08892C20.0578 9.13687 20.0863 9.20191 20.0863 9.26973V10.2926Z" fill="#A1A1AA"/>
</svg>
