<svg width="28" height="28" viewBox="0 0 28 28" fill="none" xmlns="http://www.w3.org/2000/svg">
<path d="M21.1872 7.36227C21.303 7.24757 21.4412 7.15645 21.5938 7.09425C21.7463 7.03204 21.9101 7 22.0756 7C22.241 7 22.4048 7.03204 22.5574 7.09425C22.7099 7.15645 22.8481 7.24757 22.964 7.36227C23.4493 7.8383 23.4561 8.60753 22.9809 9.0918L12.9465 20.6056C12.8326 20.727 12.6944 20.8246 12.5402 20.8924C12.3861 20.9601 12.2194 20.9967 12.0502 20.9998C11.881 21.0029 11.713 20.9724 11.5563 20.9103C11.3997 20.8482 11.2578 20.7557 11.1392 20.6385L5.0334 14.6329C4.79792 14.3998 4.66602 14.0864 4.66602 13.7599C4.66602 13.4334 4.79792 13.12 5.0334 12.8869C5.14922 12.7722 5.28744 12.6811 5.43999 12.6189C5.59253 12.5567 5.75633 12.5246 5.92179 12.5246C6.08724 12.5246 6.25104 12.5567 6.40358 12.6189C6.55613 12.6811 6.69435 12.7722 6.81017 12.8869L11.9894 17.9816L21.1532 7.39851C21.1638 7.38578 21.1751 7.37368 21.1872 7.36227Z" fill="#15C872"/>
</svg>
