<svg width="28" height="28" viewBox="0 0 28 28" fill="none" xmlns="http://www.w3.org/2000/svg">
<path d="M14.0008 15.1664C15.9305 15.1664 17.6805 15.9515 18.9486 17.2185L17.299 18.8682C16.4543 18.0235 15.2876 17.4997 14.0008 17.4997C12.714 17.4997 11.5473 18.0235 10.7026 18.8682L9.05296 17.2185C9.70189 16.5675 10.4731 16.051 11.3222 15.6988C12.1713 15.3467 13.0816 15.1657 14.0008 15.1664ZM5.75129 13.9169C7.95513 11.713 10.8846 10.4997 14.0008 10.4997C17.117 10.4997 20.0465 11.713 22.2503 13.9169L20.6006 15.5665C18.8378 13.8037 16.494 12.833 14.0008 12.833C11.5076 12.833 9.16379 13.8037 7.40096 15.5665L5.75129 13.9169ZM20.3591 7.11752C22.2997 7.93759 24.0628 9.12619 25.5508 10.6175L23.9011 12.2672C21.2563 9.62352 17.7411 8.16636 14.002 8.16636C10.2628 8.16636 6.74646 9.62236 4.10279 12.2672L2.45312 10.6175C3.96811 9.09833 5.76843 7.89356 7.75058 7.07247C9.73274 6.25137 11.8576 5.83015 14.0031 5.83302C16.2081 5.83302 18.3466 6.26469 20.3615 7.11752H20.3591ZM12.8341 20.9997C12.8341 20.6903 12.957 20.3935 13.1758 20.1747C13.3946 19.9559 13.6914 19.833 14.0008 19.833C14.3102 19.833 14.607 19.9559 14.8258 20.1747C15.0445 20.3935 15.1675 20.6903 15.1675 20.9997C15.1675 21.3091 15.0445 21.6059 14.8258 21.8246C14.607 22.0434 14.3102 22.1664 14.0008 22.1664C13.6914 22.1664 13.3946 22.0434 13.1758 21.8246C12.957 21.6059 12.8341 21.3091 12.8341 20.9997Z" fill="#EC1B24"/>
</svg>
