<svg width="28" height="28" viewBox="0 0 28 28" fill="none" xmlns="http://www.w3.org/2000/svg">
<path fill-rule="evenodd" clip-rule="evenodd" d="M8.4036 6.30443H17.9653C19.3789 6.30443 20.5349 7.46002 20.5349 8.87166V21.9328C20.5349 23.3451 19.3782 24.5 17.9653 24.5H8.4036C6.98998 24.5 5.83398 23.3451 5.83398 21.9328V8.87166C5.83398 7.45935 6.99064 6.30443 8.4036 6.30443ZM8.83437 4.54333C8.5461 4.54333 8.31222 4.30965 8.31222 4.02166C8.31222 3.73368 8.54612 3.5 8.83437 3.5H17.9901C19.4603 3.5 20.7963 4.1005 21.7647 5.06782C22.7329 6.03513 23.334 7.37006 23.334 8.83894V19.6508C23.334 19.9388 23.1001 20.1725 22.8118 20.1725C22.5236 20.1725 22.2897 19.9388 22.2897 19.6508V8.83894C22.2897 7.65825 21.806 6.58486 21.0261 5.80647C20.247 5.02742 19.172 4.54482 17.9908 4.54482H8.83508L8.83437 4.54333Z" fill="#15C872"/>
</svg>
