<svg width="28" height="28" viewBox="0 0 28 28" fill="none" xmlns="http://www.w3.org/2000/svg">
<path d="M14 3.5C11.1016 3.5 8.62695 4.52539 6.57617 6.57617C4.52539 8.62695 3.5 11.1016 3.5 14C3.5 16.8984 4.52539 19.373 6.57617 21.4238C8.62695 23.4746 11.1016 24.5 14 24.5C16.8984 24.5 19.373 23.4746 21.4238 21.4238C23.4746 19.373 24.5 16.8984 24.5 14C24.5 11.1016 23.4746 8.62695 21.4238 6.57617C19.373 4.52539 16.8984 3.5 14 3.5ZM5.26367 14C5.26367 11.5938 6.11816 9.53613 7.82715 7.82715C9.53613 6.11816 11.5938 5.26367 14 5.26367C16.1602 5.26367 17.9922 5.93359 19.4961 7.27344L7.27344 19.4961C5.93359 17.9922 5.26367 16.1602 5.26367 14ZM14 22.7363C11.8398 22.7363 10.0078 22.0664 8.50391 20.7266L20.7266 8.50391C22.0664 10.0078 22.7363 11.8398 22.7363 14C22.7363 16.4062 21.8818 18.4639 20.1729 20.1729C18.4639 21.8818 16.4062 22.7363 14 22.7363Z" fill="#EC1B24"/>
</svg>
