<svg width="28" height="28" viewBox="0 0 28 28" fill="none" xmlns="http://www.w3.org/2000/svg">
<path d="M16.3067 3.5C16.4054 3.49982 16.5033 3.51912 16.5946 3.55678C16.6859 3.59444 16.7689 3.64973 16.8389 3.71949L24.2805 11.1611C24.4214 11.3021 24.5006 11.4933 24.5006 11.6926C24.5006 11.8919 24.4214 12.0831 24.2805 12.224C23.5589 12.9456 22.6689 13.108 22.021 13.108C21.7549 13.108 21.5173 13.0809 21.3294 13.0494L16.6179 17.7609C16.7419 18.2606 16.8224 18.7702 16.8584 19.2838C16.9276 20.3392 16.8103 21.82 15.776 22.8543C15.635 22.9952 15.4439 23.0744 15.2445 23.0744C15.0452 23.0744 14.8541 22.9952 14.7131 22.8543L10.4601 18.6028L5.67639 23.3865C5.38323 23.6796 3.84379 24.7425 3.55063 24.4494C3.25747 24.1562 4.32035 22.6153 4.61351 22.3236L9.39721 17.5399L5.1457 13.2869C5.00478 13.1459 4.92562 12.9548 4.92562 12.7555C4.92562 12.5561 5.00478 12.365 5.1457 12.224C6.18001 11.1897 7.66083 11.0709 8.71619 11.1416C9.22982 11.1776 9.73937 11.2581 10.2391 11.3821L14.9506 6.6721C14.9113 6.44316 14.8912 6.21134 14.8905 5.97905C14.8905 5.3326 15.0529 4.44261 15.776 3.71949C15.9169 3.57897 16.1077 3.50004 16.3067 3.5Z" fill="#15C872"/>
</svg>
