<svg width="28" height="28" viewBox="0 0 28 28" fill="none" xmlns="http://www.w3.org/2000/svg">
<path fill-rule="evenodd" clip-rule="evenodd" d="M13.3632 4.92985C13.5319 4.76154 13.7608 4.66699 13.9994 4.66699C14.2379 4.66699 14.4668 4.76154 14.6355 4.92985C14.8042 5.09815 14.8989 5.32641 14.8989 5.56443V14.9651L17.5303 12.3176C17.7003 12.148 17.9308 12.0528 18.1712 12.0528C18.4116 12.0528 18.6422 12.148 18.8122 12.3176C18.9822 12.4872 19.0777 12.7172 19.0777 12.9571C19.0777 13.1969 18.9822 13.4269 18.8122 13.5965L14.6516 17.7471L14.5166 17.8593H14.4716L14.3592 17.9266H13.662L13.5496 17.8593H13.5046L13.3696 17.7471L9.1865 13.6189C9.01651 13.4493 8.921 13.2193 8.921 12.9795C8.921 12.7397 9.01651 12.5097 9.1865 12.3401C9.35649 12.1705 9.58706 12.0752 9.82746 12.0752C10.0679 12.0752 10.2984 12.1705 10.4684 12.3401L13.0998 14.9651V5.56443C13.0998 5.32641 13.1945 5.09815 13.3632 4.92985ZM21.797 15.8786C21.9657 15.7103 22.1945 15.6157 22.4331 15.6157C22.6717 15.6157 22.9005 15.7103 23.0692 15.8786C23.2379 16.0469 23.3327 16.2752 23.3327 16.5132V20.6414C23.3327 21.3554 23.0483 22.0402 22.5422 22.5451C22.0361 23.05 21.3497 23.3337 20.6339 23.3337H7.36481C6.64905 23.3337 5.9626 23.05 5.45647 22.5451C4.95035 22.0402 4.66602 21.3554 4.66602 20.6414V16.5132C4.66602 16.2752 4.76079 16.0469 4.9295 15.8786C5.09821 15.7103 5.32703 15.6157 5.56561 15.6157C5.8042 15.6157 6.03302 15.7103 6.20173 15.8786C6.37043 16.0469 6.46521 16.2752 6.46521 16.5132V20.6414C6.46521 20.8794 6.55999 21.1077 6.7287 21.276C6.89741 21.4443 7.12622 21.5388 7.36481 21.5388H20.6339C20.8725 21.5388 21.1013 21.4443 21.27 21.276C21.4387 21.1077 21.5335 20.8794 21.5335 20.6414V16.5132C21.5335 16.2752 21.6283 16.0469 21.797 15.8786Z" fill="#15C872"/>
</svg>
