<svg width="28" height="28" viewBox="0 0 28 28" fill="none" xmlns="http://www.w3.org/2000/svg">
<path d="M7.875 3.5C6.71468 3.5 5.60188 3.96094 4.78141 4.78141C3.96094 5.60188 3.5 6.71468 3.5 7.875V8.75H24.5V7.875C24.5 6.71468 24.0391 5.60188 23.2186 4.78141C22.3981 3.96094 21.2853 3.5 20.125 3.5H7.875ZM3.5 20.125V10.5H24.5V20.125C24.5 21.2853 24.0391 22.3981 23.2186 23.2186C22.3981 24.0391 21.2853 24.5 20.125 24.5H7.875C6.71468 24.5 5.60188 24.0391 4.78141 23.2186C3.96094 22.3981 3.5 21.2853 3.5 20.125ZM9.1875 15.75C9.5356 15.75 9.86944 15.6117 10.1156 15.3656C10.3617 15.1194 10.5 14.7856 10.5 14.4375C10.5 14.0894 10.3617 13.7556 10.1156 13.5094C9.86944 13.2633 9.5356 13.125 9.1875 13.125C8.8394 13.125 8.50556 13.2633 8.25942 13.5094C8.01328 13.7556 7.875 14.0894 7.875 14.4375C7.875 14.7856 8.01328 15.1194 8.25942 15.3656C8.50556 15.6117 8.8394 15.75 9.1875 15.75ZM10.5 18.8125C10.5 18.4644 10.3617 18.1306 10.1156 17.8844C9.86944 17.6383 9.5356 17.5 9.1875 17.5C8.8394 17.5 8.50556 17.6383 8.25942 17.8844C8.01328 18.1306 7.875 18.4644 7.875 18.8125C7.875 19.1606 8.01328 19.4944 8.25942 19.7406C8.50556 19.9867 8.8394 20.125 9.1875 20.125C9.5356 20.125 9.86944 19.9867 10.1156 19.7406C10.3617 19.4944 10.5 19.1606 10.5 18.8125ZM14 20.125C14.3481 20.125 14.6819 19.9867 14.9281 19.7406C15.1742 19.4944 15.3125 19.1606 15.3125 18.8125C15.3125 18.4644 15.1742 18.1306 14.9281 17.8844C14.6819 17.6383 14.3481 17.5 14 17.5C13.6519 17.5 13.3181 17.6383 13.0719 17.8844C12.8258 18.1306 12.6875 18.4644 12.6875 18.8125C12.6875 19.1606 12.8258 19.4944 13.0719 19.7406C13.3181 19.9867 13.6519 20.125 14 20.125ZM15.3125 14.4375C15.3125 14.0894 15.1742 13.7556 14.9281 13.5094C14.6819 13.2633 14.3481 13.125 14 13.125C13.6519 13.125 13.3181 13.2633 13.0719 13.5094C12.8258 13.7556 12.6875 14.0894 12.6875 14.4375C12.6875 14.7856 12.8258 15.1194 13.0719 15.3656C13.3181 15.6117 13.6519 15.75 14 15.75C14.3481 15.75 14.6819 15.6117 14.9281 15.3656C15.1742 15.1194 15.3125 14.7856 15.3125 14.4375ZM18.8125 15.75C19.1606 15.75 19.4944 15.6117 19.7406 15.3656C19.9867 15.1194 20.125 14.7856 20.125 14.4375C20.125 14.0894 19.9867 13.7556 19.7406 13.5094C19.4944 13.2633 19.1606 13.125 18.8125 13.125C18.4644 13.125 18.1306 13.2633 17.8844 13.5094C17.6383 13.7556 17.5 14.0894 17.5 14.4375C17.5 14.7856 17.6383 15.1194 17.8844 15.3656C18.1306 15.6117 18.4644 15.75 18.8125 15.75Z" fill="#EC1B24"/>
</svg>
