<svg width="28" height="28" viewBox="0 0 28 28" fill="none" xmlns="http://www.w3.org/2000/svg">
<path d="M14 3.5C19.799 3.5 24.5 8.20102 24.5 14C24.5 19.799 19.799 24.5 14 24.5C8.20105 24.5 3.5 19.799 3.5 14C3.5 8.20102 8.20105 3.5 14 3.5ZM14 6.05405C13.6865 6.05405 13.4324 6.30815 13.4324 6.62162V13.6719L7.81885 16.9176C7.54738 17.0744 7.44922 17.4177 7.60601 17.6892C7.76274 17.9607 8.11492 18.0499 8.38642 17.8931C10.3507 16.7587 12.3237 15.6191 14.2838 14.4877C14.4532 14.3895 14.5676 14.2099 14.5676 14V6.62162C14.5676 6.30815 14.3135 6.05405 14 6.05405Z" fill="#15C872"/>
</svg>
