<svg width="28" height="28" viewBox="0 0 28 28" fill="none" xmlns="http://www.w3.org/2000/svg">
<path fill-rule="evenodd" clip-rule="evenodd" d="M16.5946 3.55678C16.5033 3.51912 16.4054 3.49982 16.3067 3.5C16.1077 3.50004 15.9169 3.57897 15.776 3.71949C15.0529 4.44261 14.8905 5.3326 14.8905 5.97905C14.8912 6.21134 14.9113 6.44316 14.9506 6.6721L11.3366 10.285L4.73005 3.9051C4.4983 3.6813 4.12901 3.68775 3.90522 3.9195C3.68142 4.15124 3.68787 4.52053 3.91962 4.74433L10.5114 11.1099L10.2391 11.3821C9.73937 11.2581 9.22982 11.1776 8.71619 11.1416C7.66083 11.0709 6.18001 11.1897 5.1457 12.224C5.00478 12.365 4.92562 12.5561 4.92562 12.7555C4.92562 12.9548 5.00478 13.1459 5.1457 13.2869L9.39721 17.5399L4.61351 22.3236C4.32035 22.6153 3.25747 24.1562 3.55063 24.4494C3.84379 24.7425 5.38323 23.6796 5.67639 23.3865L10.4601 18.6028L14.7131 22.8543C14.8541 22.9952 15.0452 23.0744 15.2445 23.0744C15.4439 23.0744 15.635 22.9952 15.776 22.8543C16.8103 21.82 16.9276 20.3392 16.8584 19.2838C16.8224 18.7702 16.7419 18.2606 16.6179 17.7609L17.0015 17.3773L23.8898 24.0293C24.1215 24.2531 24.4908 24.2467 24.7146 24.0149C24.9384 23.7832 24.932 23.4139 24.7002 23.1901L17.8265 16.5522L21.3294 13.0494C21.5173 13.0809 21.7549 13.108 22.021 13.108C22.6689 13.108 23.5589 12.9456 24.2805 12.224C24.4214 12.0831 24.5006 11.8919 24.5006 11.6926C24.5006 11.4933 24.4214 11.3021 24.2805 11.1611L16.8389 3.71949C16.7689 3.64973 16.6859 3.59444 16.5946 3.55678Z" fill="#A1A1AA"/>
</svg>
