<svg width="28" height="28" viewBox="0 0 28 28" fill="none" xmlns="http://www.w3.org/2000/svg">
<path d="M14 24.5C16.0767 24.5 18.1068 23.8842 19.8335 22.7304C21.5602 21.5767 22.906 19.9368 23.7007 18.0182C24.4954 16.0996 24.7034 13.9884 24.2982 11.9516C23.8931 9.91475 22.8931 8.04383 21.4246 6.57538C19.9562 5.10693 18.0852 4.1069 16.0484 3.70176C14.0116 3.29661 11.9004 3.50455 9.98182 4.29927C8.0632 5.09399 6.42332 6.4398 5.26957 8.16652C4.11581 9.89323 3.5 11.9233 3.5 14C3.50312 16.7838 4.61036 19.4527 6.57882 21.4212C8.54728 23.3896 11.2162 24.4969 14 24.5ZM14.0002 20.7356C13.7841 20.7356 13.5728 20.6715 13.3931 20.5515C13.2135 20.4314 13.0734 20.2608 12.9907 20.0611C12.908 19.8615 12.8864 19.6418 12.9285 19.4298C12.9707 19.2179 13.0747 19.0232 13.2275 18.8704C13.3804 18.7176 13.575 18.6135 13.787 18.5714C13.9989 18.5292 14.2186 18.5508 14.4183 18.6335C14.6179 18.7162 14.7886 18.8563 14.9086 19.036C15.0287 19.2156 15.0928 19.4269 15.0928 19.643C15.0928 19.9328 14.9777 20.2107 14.7728 20.4156C14.5679 20.6205 14.2899 20.7356 14.0002 20.7356ZM12.8354 8.4293C12.8354 8.1204 12.9581 7.82415 13.1765 7.60572C13.3949 7.38729 13.6912 7.26458 14.0001 7.26458C14.309 7.26458 14.6052 7.38729 14.8237 7.60572C15.0421 7.82415 15.1648 8.1204 15.1648 8.4293V15.8113C15.1648 16.1202 15.0421 16.4164 14.8237 16.6349C14.6052 16.8533 14.309 16.976 14.0001 16.976C13.6912 16.976 13.3949 16.8533 13.1765 16.6349C12.9581 16.4164 12.8354 16.1202 12.8354 15.8113V8.4293Z" fill="#FF9B4D"/>
</svg>
